<?xml version="1.0" encoding="UTF-8" standalone="no"?>
<!-- Created with Inkscape (http://www.inkscape.org/) -->
<svg
   xmlns:svg="http://www.w3.org/2000/svg"
   xmlns="http://www.w3.org/2000/svg"
   version="1.0"
   width="400"
   height="400"
   id="svg3305">
  <defs
     id="defs3307" />
  <g
     transform="translate(-228.7642,-274.69781)"
     id="layer1">
    <path
       d="M 418.87207,589.37817 C 418.87207,583.98061 423.2493,579.60338 428.64686,579.60338 C 434.05462,579.60338 438.43187,583.98061 438.43187,589.37817 C 438.43187,594.78592 434.05462,599.16315 428.64686,599.16315 C 423.2493,599.16315 418.87207,594.78592 418.87207,589.37817 M 424.53492,589.37817 C 424.53492,587.11302 426.38173,585.27642 428.64686,585.27642 C 430.92219,585.27642 432.769,587.11302 432.769,589.37817 C 432.769,591.6535 430.92219,593.50031 428.64686,593.50031 C 426.38173,593.50031 424.53492,591.6535 424.53492,589.37817 M 430.52427,571.4101 C 430.52427,566.02274 434.9015,561.6353 440.29906,561.6353 C 445.70682,561.6353 450.07385,566.02274 450.07385,571.4101 C 450.07385,576.82806 445.70682,581.20529 440.29906,581.20529 C 434.9015,581.20529 430.52427,576.82806 430.52427,571.4101 M 436.18712,571.4101 C 436.18712,569.14496 438.02373,567.30836 440.29906,567.30836 C 442.57441,567.30836 444.41102,569.14496 444.41102,571.4101 C 444.41102,573.69564 442.57441,575.52203 440.29906,575.52203 C 438.02373,575.52203 436.18712,573.69564 436.18712,571.4101 M 406.98519,571.4101 C 406.98519,566.02274 411.36242,561.6353 416.75998,561.6353 C 422.16774,561.6353 426.54497,566.02274 426.54497,571.4101 C 426.54497,576.82806 422.16774,581.20529 416.75998,581.20529 C 411.36242,581.20529 406.98519,576.82806 406.98519,571.4101 M 412.64803,571.4101 C 412.64803,569.14496 414.49484,567.30836 416.75998,567.30836 C 419.03533,567.30836 420.87192,569.14496 420.87192,571.4101 C 420.87192,573.69564 419.03533,575.52203 416.75998,575.52203 C 414.49484,575.52203 412.64803,573.69564 412.64803,571.4101 M 418.88227,552.60535 C 418.88227,547.20779 423.2595,542.82036 428.66728,542.82036 C 434.06484,542.82036 438.45227,547.20779 438.45227,552.60535 C 438.45227,558.0131 434.06484,562.40056 428.66728,562.40056 C 423.2595,562.40056 418.88227,558.0131 418.88227,552.60535 M 424.55532,552.60535 C 424.55532,550.34021 426.39191,548.50362 428.66728,548.50362 C 430.94261,548.50362 432.7792,550.34021 432.7792,552.60535 C 432.7792,554.88069 430.94261,556.7275 428.66728,556.7275 C 426.39191,556.7275 424.55532,554.88069 424.55532,552.60535 M 441.68672,552.60535 C 441.68672,547.20779 446.06394,542.82036 451.46152,542.82036 C 456.86928,542.82036 461.24649,547.20779 461.24649,552.60535 C 461.24649,558.0131 456.86928,562.40056 451.46152,562.40056 C 446.06394,562.40056 441.68672,558.0131 441.68672,552.60535 M 447.34956,552.60535 C 447.34956,550.34021 449.19637,548.50362 451.46152,548.50362 C 453.73685,548.50362 455.58366,550.34021 455.58366,552.60535 C 455.58366,554.88069 453.73685,556.7275 451.46152,556.7275 C 449.19637,556.7275 447.34956,554.88069 447.34956,552.60535 M 396.14925,552.60535 C 396.14925,547.20779 400.52648,542.82036 405.92406,542.82036 C 411.33182,542.82036 415.71923,547.20779 415.71923,552.60535 C 415.71923,558.0131 411.33182,562.40056 405.92406,562.40056 C 400.52648,562.40056 396.14925,558.0131 396.14925,552.60535 M 401.8121,552.60535 C 401.8121,550.34021 403.65891,548.50362 405.92406,548.50362 C 408.20959,548.50362 410.0462,550.34021 410.0462,552.60535 C 410.0462,554.88069 408.20959,556.7275 405.92406,556.7275 C 403.65891,556.7275 401.8121,554.88069 401.8121,552.60535 M 397.49609,492.68119 C 393.52699,492.10981 389.95583,491.42617 386.72136,490.46706 L 372.56935,557.52336 C 372.05919,560.03338 371.01844,562.02303 369.83486,564.23716 C 365.86575,571.64477 364.72298,571.16522 364.51891,573.52218 C 364.17201,577.28721 371.70207,574.96086 374.95693,572.11413 C 380.26266,567.4716 382.15027,564.12492 383.40528,558.00291 L 397.49609,492.68119 z M 370.36543,481.9779 L 359.37644,533.33126 C 358.24386,537.29015 357.44801,539.48388 355.76446,543.2387 C 353.68297,547.90162 349.418,552.4523 349.38738,554.67662 C 349.33637,558.24779 358.71322,551.96255 362.43744,547.66694 C 366.93712,542.50405 369.92669,538.637 371.16129,533.50473 C 376.95678,509.2616 375.97726,510.98597 380.6912,488.21213 C 377.07921,486.63061 373.80395,484.53893 370.36543,481.9779 M 351.20358,460.98963 C 350.48935,459.81626 349.70369,458.4388 348.88741,457.11237 C 346.19374,455.43902 343.03071,453.07185 341.47979,451.51074 L 332.80696,490.69153 C 332.3376,492.73221 331.36831,494.17088 330.15409,495.95646 C 328.6338,498.19098 323.53215,501.18056 323.53215,503.63957 C 323.53215,506.59853 329.41945,506.01694 332.57229,505.08844 C 339.67381,503.00696 343.35721,497.21147 344.92852,489.9977 L 351.20358,460.98963 z M 364.87604,477.7231 L 363.80469,476.76398 C 360.27432,473.61117 357.88675,470.88686 355.70324,467.87688 L 346.18354,512.30219 C 345.69378,515.94478 345.12239,518.01607 343.6735,521.40357 C 341.40837,526.69909 335.12313,530.70901 335.12313,533.46391 C 335.12313,536.31064 342.7246,533.10679 346.38759,530.46413 C 351.41783,526.86234 355.44815,521.08726 357.18273,513.39395 L 364.87604,477.7231 z M 459.3895,492.68119 C 463.34841,492.10981 466.91956,491.42617 470.15402,490.46706 L 484.30604,557.52336 C 484.8264,560.03338 485.85694,562.02303 487.05073,564.23716 C 491.01982,571.64477 492.1524,571.16522 492.36667,573.52218 C 492.70338,577.28721 485.17332,574.96086 481.92867,572.11413 C 476.61273,567.4716 474.72512,564.12492 473.4701,558.00291 L 459.3895,492.68119 z M 486.52017,481.9779 L 497.49895,533.33126 C 498.63151,537.29015 499.43759,539.48388 501.11093,543.2387 C 503.20261,547.90162 507.45738,552.4523 507.488,554.67662 C 507.53902,558.24779 498.17237,551.96255 494.43795,547.66694 C 489.94847,542.50405 486.95891,538.637 485.72431,533.50473 C 479.91861,509.2616 480.89813,510.98597 476.18419,488.21213 C 479.79616,486.63061 483.07142,484.53893 486.52017,481.9779 M 505.67181,460.98963 C 506.39624,459.81626 507.17169,458.4388 507.99816,457.11237 C 510.69185,455.43902 513.84468,453.07185 515.40578,451.51074 L 524.06841,490.69153 C 524.53778,492.73221 525.5173,494.17088 526.73149,495.95646 C 528.24158,498.19098 533.34325,501.18056 533.34325,503.63957 C 533.34325,506.59853 527.45592,506.01694 524.31329,505.08844 C 517.20159,503.00696 513.51817,497.21147 511.94685,489.9977 L 505.67181,460.98963 z M 491.99935,477.7231 L 493.0809,476.76398 C 496.61125,473.61117 498.99883,470.88686 501.17215,467.87688 L 510.69185,512.30219 C 511.18161,515.94478 511.753,518.01607 513.20187,521.40357 C 515.47722,526.69909 521.75227,530.70901 521.75227,533.46391 C 521.75227,536.31064 514.16098,533.10679 510.4878,530.46413 C 505.45754,526.86234 501.42723,521.08726 499.70286,513.39395 L 491.99935,477.7231 z M 408.69934,469.69309 L 410.94407,459.83666 C 415.0152,460.98963 417.25995,461.90794 420.99435,463.91799 C 424.03495,465.56073 425.67769,466.64228 428.38157,468.78498 C 431.09566,466.64228 432.73839,465.56073 435.77898,463.91799 C 439.50322,461.90794 441.75813,460.98963 445.82927,459.83666 L 447.99237,469.04008 C 446.43127,469.33596 444.68651,469.84612 442.10505,470.79504 C 437.97271,472.31534 433.54447,474.31519 428.68768,477.62107 C 424.21862,474.52946 421.37189,473.11119 416.1988,471.44805 C 413.37248,470.53995 411.01551,470.04 408.69934,469.69309 M 431.5446,530.43352 L 431.66704,484.34506 C 434.80967,481.87585 437.85028,480.1617 440.87045,478.69242 C 444.11512,477.12111 446.69655,476.36605 449.33921,475.80488 L 460.40983,526.17873 C 458.57324,526.62768 457.05294,527.11742 454.7878,527.95411 C 448.6556,530.20905 446.46188,531.42324 440.76842,536.01472 C 437.50334,533.24963 434.68723,531.85177 431.5446,530.43352 M 425.63687,530.18863 C 422.68813,531.6171 420.22911,533.24963 416.96405,536.01472 C 411.82157,531.68852 408.35244,530.34169 402.29165,527.88268 C 400.05712,526.98478 398.34297,526.36238 396.52677,525.81141 L 407.36271,476.1824 C 410.32166,476.8048 412.82149,477.57005 416.26,479.06994 C 420.14749,480.77389 422.70853,482.21256 425.54505,484.34506 L 425.63687,530.18863 z M 409.90333,453.16368 L 414.41321,454.87784 C 421.80043,457.55112 422.09632,457.95925 428.38157,461.71408 C 432.23843,459.41833 432.01396,459.10202 435.06475,457.77559 C 431.79969,455.88797 429.38151,454.72479 426.12664,453.57181 C 422.23917,452.18416 419.71893,451.78624 413.69898,449.09254 C 405.53632,445.42957 403.6793,438.36885 408.52589,431.86932 L 401.68966,430.59391 C 399.24086,432.44071 398.12869,435.26704 398.12869,437.77707 C 398.12869,445.40915 403.54667,449.87821 409.90333,453.16368 M 354.25437,414.81956 C 354.25437,412.04425 351.99944,409.78932 349.23433,409.78932 C 346.45902,409.78932 344.20407,412.04425 344.20407,414.81956 C 344.20407,417.59487 346.45902,419.84981 349.23433,419.84981 C 351.99944,419.84981 354.25437,417.59487 354.25437,414.81956 M 502.50878,414.81956 C 502.50878,412.04425 504.76371,409.78932 507.53902,409.78932 C 510.31433,409.78932 512.56925,412.04425 512.56925,414.81956 C 512.56925,417.59487 510.31433,419.84981 507.53902,419.84981 C 504.76371,419.84981 502.50878,417.59487 502.50878,414.81956 M 423.80028,369.52697 C 423.80028,366.52719 426.22866,364.0886 429.22844,364.0886 C 432.21803,364.0886 434.64642,366.52719 434.64642,369.52697 C 434.64642,372.51655 432.21803,374.94495 429.22844,374.94495 C 426.22866,374.94495 423.80028,372.51655 423.80028,369.52697 M 457.65492,422.39043 C 456.33869,421.33949 454.88982,420.39059 453.06343,419.30902 C 452.18595,418.78866 451.41049,418.43154 450.55341,418.02341 C 455.7571,417.15613 459.13441,413.86044 459.13441,408.88122 C 459.13441,399.21868 445.19666,394.55575 445.01301,387.79093 C 444.96198,386.02577 445.40073,385.04625 445.96191,383.37289 L 451.59416,387.59708 C 454.5123,384.97482 458.82833,385.07684 461.64443,387.79093 C 464.3075,390.37238 464.69523,394.20883 462.59334,397.26983 C 467.23586,400.49409 468.49086,404.70806 468.49086,410.49334 C 468.49086,414.80936 463.9912,419.76818 457.65492,422.39043 M 441.25817,455.35741 C 439.58483,453.99015 438.00331,453.15348 434.85048,451.99031 C 448.29847,449.58231 451.66559,444.53167 451.66559,438.74637 C 451.66559,431.4714 437.92168,426.84928 428.38157,426.84928 C 411.56649,427.61454 388.19065,422.98223 388.19065,410.81985 C 388.19065,405.04477 390.23132,401.51441 394.16979,397.26983 C 392.06791,394.20883 392.45565,390.37238 395.12892,387.79093 C 397.94504,385.07684 402.25083,384.97482 405.17919,387.59708 L 410.80124,383.37289 C 411.37262,385.04625 411.81136,386.02577 411.76034,387.79093 C 411.56649,394.55575 397.63892,399.21868 397.63892,408.88122 C 397.63892,421.6966 418.91289,420.35997 428.38157,420.35997 C 437.0442,420.54363 444.17633,421.12523 450.55341,425.21676 C 455.44081,428.34918 459.22625,431.83873 459.22625,437.80767 C 459.22625,447.3784 450.71666,452.20457 441.25817,455.35741 M 444.58446,440.47074 C 444.58446,433.87938 434.53418,433.10393 428.38157,433.10393 L 415.30091,432.93047 C 413.45409,435.7772 412.65824,438.68516 414.26016,441.5727 C 416.42327,445.50097 427.25919,447.14372 428.1775,447.14372 C 434.15666,447.14372 444.58446,444.76633 444.58446,440.47074 M 499.67224,461.77529 C 494.95831,469.4686 486.22427,476.88643 475.87809,481.94728 C 469.55201,485.03889 464.33812,486.79387 458.39977,487.5081 L 455.74692,474.27438 C 468.75617,472.86632 471.23557,472.5296 484.24482,468.4993 C 488.34655,467.22388 496.30516,463.90779 499.67224,461.77529 M 454.4715,469.1319 L 451.95128,457.31644 C 462.28726,455.16354 469.01123,452.41883 475.35771,448.67421 C 483.36732,443.98068 489.04039,438.83821 495.45828,429.68581 C 490.6321,426.22688 487.99964,421.46194 487.99964,415.07465 C 487.99964,404.54481 496.53983,395.99442 507.07986,395.99442 C 517.61991,395.99442 526.55804,405.63657 526.55804,416.1664 C 526.55804,432.04279 518.23212,445.2255 500.80482,455.27578 C 487.70376,462.82624 472.36813,467.25448 454.4715,469.1319 M 358.08061,461.88753 C 362.78434,469.59105 371.02864,476.88643 381.24217,482.19216 C 386.16019,484.743 392.43523,486.79387 398.37358,487.5081 L 401.02644,474.27438 C 388.0172,472.86632 380.36469,471.12154 367.54931,466.53005 C 364.16181,465.31585 360.82533,463.77515 358.08061,461.88753 M 402.29165,469.1319 L 404.81189,457.31644 C 394.48611,455.16354 387.7519,452.41883 381.41564,448.67421 C 373.40602,443.98068 367.73296,438.83821 361.30487,429.68581 C 366.13106,426.22688 368.77371,421.46194 368.77371,415.07465 C 368.77371,404.54481 360.22332,395.99442 349.68327,395.99442 C 339.14322,395.99442 330.21533,405.63657 330.21533,416.1664 C 330.21533,432.04279 338.53105,445.2255 355.96853,455.27578 C 369.0696,462.82624 384.39502,467.25448 402.29165,469.1319 M 426.24908,384.13815 L 431.66704,384.13815 L 431.66704,411.77898 L 426.24908,411.77898 L 426.24908,384.13815 z M 417.91296,369.52697 C 417.91296,363.28253 422.9738,358.21147 429.22844,358.21147 C 435.47289,358.21147 440.53375,363.28253 440.53375,369.52697 C 440.53375,375.76121 435.47289,380.82206 429.22844,380.82206 C 422.9738,380.82206 417.91296,375.76121 417.91296,369.52697 M 428.39177,414.48284 C 437.66661,414.48284 453.12464,414.86037 453.12464,409.25874 C 453.12464,403.36122 447.22713,400.88181 443.06417,396.69845 C 438.83999,392.43346 437.19725,385.92372 440.17663,380.05681 C 441.45203,377.53658 442.64583,376.21015 445.01301,374.65925 L 453.12464,381.43426 C 457.98143,379.55684 462.43009,380.40372 466.25635,383.94428 C 469.96015,387.3522 471.17435,391.42333 469.93975,396.31072 C 474.23535,401.04506 475.6434,405.63657 474.78632,411.97283 C 473.74559,419.54371 469.7969,424.55354 462.70558,427.37986 C 465.04215,431.18571 466.4706,433.79776 466.4706,438.02195 C 466.4706,442.51141 464.44014,445.75606 461.23631,448.88848 C 466.84812,447.21514 472.19468,445.31733 478.03098,440.82786 C 482.40821,437.46076 484.65296,435.22623 488.26493,431.02245 C 484.62234,426.71664 482.41841,421.14563 482.41841,415.07465 C 482.41841,413.32987 482.61228,411.62592 482.9592,409.98318 C 480.91852,409.29956 479.2962,407.50377 479.2962,405.23864 C 479.2962,402.39191 481.60215,400.08596 484.44889,400.08596 C 485.32637,400.08596 486.15283,400.32063 486.87728,400.69815 C 488.42818,398.50443 490.56068,396.63722 492.73399,395.0455 C 492.33605,394.33127 492.11158,393.5048 492.11158,392.62732 C 492.11158,389.78059 494.41755,387.48484 497.26426,387.48484 C 499.46819,387.48484 501.3456,388.87249 502.08024,390.81113 C 503.7638,390.44381 505.28407,390.42339 507.07986,390.42339 C 508.4063,390.42339 509.71233,390.51522 510.98775,390.7295 C 511.65096,388.65822 513.67123,387.27057 515.96698,387.27057 C 518.81371,387.27057 521.11965,389.56631 521.11965,392.41306 C 521.11965,393.11708 520.97681,393.7905 520.72173,394.3925 C 527.56815,398.83094 532.25149,408.218 532.25149,416.90104 C 532.25149,420.35997 531.89436,434.8589 520.42583,446.16419 L 528.75175,485.43683 C 529.70066,489.0488 530.17001,490.78336 532.04742,493.29338 C 534.24113,496.21154 539.72033,499.57864 539.58768,503.18041 C 539.36322,509.43505 534.54724,511.76142 527.00698,511.1288 C 523.59906,510.84311 519.02797,510.03706 515.72209,506.63934 L 517.29341,513.08785 C 518.45659,518.09769 519.48711,520.14855 521.84408,522.82183 C 525.29282,526.71951 529.22111,529.56623 529.22111,534.59648 C 529.22111,539.55528 522.76239,540.84091 518.23212,540.40217 C 511.64076,539.76957 508.49814,537.4228 503.93725,532.70884 C 506.33504,538.9635 507.53902,541.58576 509.14094,543.94272 C 512.75293,549.30966 515.55885,553.46243 515.55885,557.23767 C 515.55885,562.09446 508.99811,563.02296 504.25354,562.01283 C 498.2846,560.76802 492.63196,556.42141 489.01999,551.08505 C 490.44844,554.83988 491.31572,556.95198 492.94826,560.61498 C 495.58072,566.57371 500.32527,570.95095 500.32527,575.59346 C 500.32527,579.9809 493.66249,581.93993 487.13236,580.9196 C 473.67417,578.83812 469.26632,568.45113 467.50115,558.62532 L 461.62403,532.30072 C 461.06284,532.59661 458.4814,533.17821 456.32849,534.12713 C 449.59431,537.07587 446.70677,538.93288 440.76842,544.38148 C 436.34017,540.32054 432.96287,538.19824 428.47341,536.20859 C 423.99415,538.19824 420.54541,540.32054 416.11717,544.38148 C 410.16863,538.93288 407.28109,537.07587 400.55708,534.12713 C 398.39398,533.17821 395.81255,532.59661 395.25135,532.30072 L 389.37423,558.62532 C 387.61926,568.45113 383.21143,578.83812 369.74302,580.9196 C 363.2231,581.93993 356.55012,579.9809 356.55012,575.59346 C 356.55012,570.95095 361.30487,566.57371 363.92714,560.61498 C 365.55966,556.94176 366.42694,554.83988 367.85541,551.08505 C 364.24343,556.42141 358.5908,560.76802 352.62185,562.01283 C 347.87728,563.02296 341.31655,562.09446 341.31655,557.23767 C 341.31655,553.46243 344.12246,549.30966 347.74464,543.94272 C 349.33637,541.58576 350.54035,538.9635 352.93813,532.70884 C 348.38745,537.4228 345.24483,539.76957 338.64326,540.40217 C 334.11298,540.84091 327.65429,539.55528 327.65429,534.59648 C 327.65429,529.56623 331.58256,526.71951 335.0313,522.82183 C 337.38826,520.14855 338.41881,518.09769 339.59217,513.08785 L 341.15328,506.63934 C 337.85762,510.03706 333.28652,510.84311 329.8684,511.1288 C 322.32815,511.76142 317.51216,509.43505 317.28769,503.18041 C 317.15506,499.57864 322.63425,496.21154 324.82797,493.29338 C 326.70538,490.78336 327.18493,489.0488 328.12363,485.43683 L 336.44955,446.16419 C 324.98102,434.8589 324.6239,420.35997 324.6239,416.90104 C 324.6239,408.218 329.31743,398.83094 336.15366,394.3925 C 335.89858,393.7905 335.76592,393.11708 335.76592,392.41306 C 335.76592,389.56631 338.07187,387.27057 340.90841,387.27057 C 343.21436,387.27057 345.23462,388.65822 345.89783,390.7295 C 347.16305,390.51522 348.47929,390.42339 349.79551,390.42339 C 351.5913,390.42339 353.1116,390.44381 354.80536,390.81113 C 355.52979,388.87249 357.41739,387.48484 359.61111,387.48484 C 362.45785,387.48484 364.7638,389.78059 364.7638,392.62732 C 364.7638,393.5048 364.53933,394.33127 364.15161,395.0455 C 366.31471,396.63722 368.4472,398.50443 370.00831,400.69815 C 370.72254,400.32063 371.55921,400.08596 372.43671,400.08596 C 375.28344,400.08596 377.57919,402.39191 377.57919,405.23864 C 377.57919,407.50377 375.96706,409.29956 373.9162,409.98318 C 374.2631,411.62592 374.45697,413.32987 374.45697,415.07465 C 374.45697,421.14563 372.25304,426.71664 368.61046,431.02245 C 372.23264,435.22623 374.46716,437.46076 378.8546,440.82786 C 384.6909,445.31733 390.03745,447.21514 395.64929,448.88848 C 392.43523,445.75606 390.40477,442.51141 390.40477,438.02195 C 390.40477,433.79776 391.84346,431.18571 394.18,427.37986 C 387.07849,424.55354 383.13999,419.54371 382.09925,411.97283 C 381.23197,405.63657 382.65024,401.04506 386.93564,396.31072 C 385.71123,391.42333 386.92543,387.3522 390.61904,383.94428 C 394.44529,380.40372 398.89396,379.55684 403.76094,381.43426 L 411.87259,374.65925 C 414.23976,376.21015 415.42334,377.53658 416.70896,380.05681 C 419.68834,385.92372 418.0456,392.43346 413.81122,396.69845 C 409.64826,400.88181 403.76094,403.36122 403.76094,409.25874 C 403.76094,414.86037 419.11696,414.48284 428.39177,414.48284 M 428.7591,334.91727 C 351.5607,334.91727 288.98365,397.50451 288.98365,474.69272 C 288.98365,551.90132 351.5607,614.47836 428.7591,614.47836 C 505.9575,614.47836 568.54474,551.90132 568.54474,474.69272 C 568.54474,397.50451 505.9575,334.91727 428.7591,334.91727 M 299.06455,484.17161 C 298.55437,484.7532 297.89117,485.0899 297.0953,485.14093 C 296.31986,485.19195 295.62602,484.96746 295.03423,484.4471 C 294.44243,483.92672 294.11593,483.27372 294.06491,482.48806 C 294.00369,481.7126 294.23836,481.01877 294.74854,480.43719 C 295.26889,479.84539 295.91172,479.52909 296.70758,479.46787 C 297.50344,479.42706 298.18707,479.65153 298.78906,480.1617 C 299.39106,480.67186 299.70736,481.32488 299.76858,482.09013 C 299.81959,482.88599 299.59512,483.57982 299.06455,484.17161 M 300.08488,493.99741 C 299.60532,494.60961 298.96251,494.97693 298.17685,495.06876 C 297.39121,495.1708 296.68717,494.97693 296.07497,494.48717 C 295.45256,494.00763 295.09544,493.37501 295.00361,492.57915 C 294.90159,491.8139 295.09544,491.10986 295.5852,490.49768 C 296.06477,489.88548 296.69737,489.52836 297.48302,489.43653 C 298.26869,489.3447 298.97271,489.52836 299.59512,490.01812 C 300.21753,490.49768 300.57464,491.12008 300.67667,491.89552 C 300.76851,492.67098 300.57464,493.38523 300.08488,493.99741 M 302.04393,504.12932 C 301.62559,504.79255 301.02358,505.22108 300.24813,505.38434 C 299.48289,505.56799 298.76864,505.44555 298.10542,505.03741 C 297.44221,504.60888 297.01369,504.0273 296.84022,503.25184 C 296.65655,502.47638 296.779,501.77235 297.19734,501.10913 C 297.61566,500.45612 298.20747,500.02759 298.97271,499.86433 C 299.74816,499.68067 300.47262,499.80311 301.14603,500.21124 C 301.81944,500.62958 302.23778,501.21118 302.41125,501.96622 C 302.5847,502.74168 302.47245,503.4559 302.04393,504.12932 M 304.60496,513.64904 C 304.21724,514.34285 303.63565,514.7918 302.87039,515.01628 C 302.11535,515.23055 301.4011,515.14891 300.70729,514.77139 C 300.02366,514.38367 299.57471,513.81227 299.36044,513.05723 C 299.13596,512.30219 299.2176,511.56756 299.60532,510.89414 C 299.98285,510.22071 300.55424,509.77176 301.30928,509.5473 C 302.07453,509.33303 302.79897,509.41466 303.4928,509.79218 C 304.18662,510.1799 304.63558,510.73088 304.84983,511.47573 C 305.0743,512.23077 304.98247,512.9552 304.60496,513.64904 M 308.07408,523.32179 C 307.75779,524.03602 307.23741,524.55639 306.50277,524.85228 C 305.76813,525.1584 305.0437,525.14819 304.31926,524.83188 C 303.60503,524.536 303.09485,524.00542 302.79897,523.27077 C 302.49287,522.53613 302.50306,521.8219 302.81937,521.10766 C 303.12547,520.38323 303.63565,519.87306 304.37027,519.58738 C 305.11512,519.29147 305.83956,519.29147 306.57421,519.60778 C 307.29863,519.89347 307.80881,520.41385 308.0945,521.12807 C 308.3904,521.87292 308.3904,522.59735 308.07408,523.32179 M 312.01257,532.19869 C 311.72688,532.93333 311.21672,533.46391 310.49228,533.80061 C 309.76783,534.11691 309.04341,534.12713 308.30876,533.84143 C 307.57412,533.56594 307.05376,533.05578 306.72726,532.34154 C 306.41094,531.6171 306.39053,530.90286 306.67622,530.16824 C 306.96193,529.44379 307.46188,528.92342 308.17613,528.60712 C 308.90055,528.28062 309.6352,528.25 310.38004,528.5255 C 311.10449,528.81119 311.63505,529.31115 311.95135,530.00498 C 312.27785,530.73961 312.29827,531.47424 312.01257,532.19869 M 316.82855,541.13681 C 316.60406,541.89186 316.15511,542.46324 315.4511,542.84076 C 314.76748,543.2285 314.04303,543.31011 313.2982,543.09585 C 312.53296,542.87138 311.96157,542.41223 311.58402,541.7388 C 311.19631,541.04498 311.11469,540.32054 311.33916,539.57569 C 311.56363,538.83086 312.01257,538.25947 312.69619,537.88195 C 313.40024,537.49421 314.12466,537.40239 314.87971,537.62687 C 315.64495,537.83094 316.20614,538.27987 316.58366,538.9635 C 316.97139,539.65733 317.05302,540.37156 316.82855,541.13681 M 322.51182,549.75862 C 322.37917,550.53408 321.98123,551.14628 321.32822,551.59523 C 320.68541,552.05438 319.98138,552.19722 319.20594,552.07478 C 318.43048,551.93194 317.81827,551.534 317.35913,550.8912 C 316.91017,550.24838 316.75712,549.54435 316.89997,548.7689 C 317.03262,548.01386 317.43054,547.39145 318.07335,546.95271 C 318.72636,546.49356 319.44059,546.33031 320.21605,546.46295 C 320.99151,546.59559 321.60371,546.98332 322.04244,547.60573 C 322.5016,548.26894 322.66485,548.97297 322.51182,549.75862 M 328.48075,557.59478 C 328.37872,558.37024 328.01139,559.01305 327.37879,559.4926 C 326.76659,559.98236 326.06257,560.17622 325.2871,560.07419 C 324.50146,559.98236 323.86885,559.61504 323.38928,559.00284 C 322.89952,558.37024 322.70567,557.68662 322.80769,556.90095 C 322.90974,556.13571 323.26686,555.51331 323.88925,555.02355 C 324.51166,554.53378 325.21569,554.32972 326.00133,554.42154 C 326.787,554.51337 327.4196,554.86029 327.88896,555.4827 C 328.37872,556.1051 328.57259,556.80912 328.48075,557.59478 M 335.3884,565.30851 C 335.368,566.08395 335.07211,566.75738 334.50072,567.30836 C 333.92933,567.85933 333.25592,568.12462 332.48046,568.10421 C 331.6846,568.08381 331.02137,567.79812 330.4704,567.23693 C 329.92962,566.66554 329.66433,565.99213 329.67455,565.20647 C 329.69495,564.43101 329.99084,563.778 330.55203,563.22703 C 331.12342,562.67605 331.80703,562.40056 332.59269,562.41075 C 333.38855,562.42096 334.05178,562.69645 334.58236,563.25763 C 335.13333,563.83922 335.40882,564.51264 335.3884,565.30851 M 342.3777,572.00189 C 342.3879,572.78754 342.11241,573.47118 341.56142,574.04256 C 341.01045,574.61392 340.34724,574.89963 339.56158,574.90984 C 338.77592,574.93024 338.09229,574.64454 337.5311,574.10377 C 336.96994,573.5528 336.67404,572.89978 336.66381,572.11413 C 336.65362,571.32847 336.92911,570.66526 337.4801,570.09387 C 338.03107,569.53268 338.6943,569.22659 339.47994,569.20618 C 340.2758,569.19597 340.94921,569.45105 341.50021,569.99183 C 342.0716,570.54282 342.3675,571.21623 342.3777,572.00189 M 350.3363,578.54222 C 350.42811,579.32788 350.23426,580.03191 349.74449,580.66451 C 349.26495,581.27672 348.62214,581.64403 347.84668,581.72566 C 347.07122,581.8277 346.36721,581.62363 345.7448,581.13387 C 345.12239,580.66451 344.76527,580.03191 344.67345,579.24626 C 344.59181,578.481 344.78567,577.77697 345.26524,577.16477 C 345.755,576.53217 346.39781,576.16485 347.17325,576.07302 C 347.95891,575.96078 348.65274,576.15465 349.26495,576.6342 C 349.88734,577.12396 350.24446,577.76677 350.3363,578.54222 M 358.72343,584.32751 C 358.88668,585.09277 358.75405,585.81718 358.31529,586.47021 C 357.88675,587.14364 357.29496,587.55176 356.5195,587.72523 C 355.75426,587.87827 355.04003,587.74563 354.3768,587.31709 C 353.71358,586.87835 353.30545,586.28656 353.1422,585.5213 C 352.98917,584.75606 353.1218,584.05203 353.55034,583.3888 C 353.98908,582.72558 354.59107,582.30725 355.35632,582.144 C 356.13178,581.97054 356.84601,582.09298 357.48883,582.52152 C 358.15204,582.96027 358.57038,583.55205 358.72343,584.32751 M 367.19218,589.33735 C 367.38606,590.0924 367.29424,590.82704 366.8963,591.51066 C 366.49838,592.18408 365.92699,592.63303 365.17194,592.8371 C 364.40668,593.04116 363.68224,592.93912 362.99863,592.5412 C 362.315,592.15346 361.87626,591.59229 361.68239,590.82704 C 361.48854,590.06178 361.58036,589.34755 361.9783,588.67413 C 362.37622,587.9803 362.95781,587.53136 363.71285,587.3273 C 364.4781,587.11302 365.19234,587.20485 365.85555,587.58237 C 366.54938,587.9803 366.98812,588.5721 367.19218,589.33735 M 376.46704,593.86763 C 376.7425,594.60228 376.72211,595.3369 376.3956,596.05114 C 376.0793,596.76537 375.55892,597.27555 374.82428,597.55103 C 374.07945,597.83672 373.35501,597.81633 372.64078,597.50002 C 371.91634,597.16331 371.41638,596.65313 371.15108,595.9185 C 370.87559,595.19406 370.89599,594.45942 371.21231,593.74519 C 371.53881,593.01055 372.05919,592.52079 372.80403,592.22489 C 373.53866,591.94939 374.2529,591.9596 374.95693,592.27591 C 375.69158,592.59221 376.19153,593.12279 376.46704,593.86763 M 385.45616,597.4796 C 385.76225,598.20404 385.77245,598.92849 385.46636,599.67333 C 385.18066,600.39776 384.6705,600.91813 383.94606,601.22423 C 383.22163,601.54054 382.48699,601.54054 381.76254,601.24464 C 381.0279,600.95895 380.51774,600.43857 380.21164,599.71414 C 379.90555,599.01011 379.90555,598.28566 380.20144,597.55103 C 380.50754,596.80619 381.01772,596.28583 381.73194,595.97972 C 382.45637,595.66341 383.18081,595.65321 383.90526,595.9389 C 384.63989,596.2348 385.16026,596.75517 385.45616,597.4796 M 395.37378,600.44878 C 395.75133,601.1426 395.83295,601.86704 395.61867,602.63229 C 395.3942,603.38734 394.94525,603.95873 394.26162,604.34645 C 393.57801,604.71377 392.84337,604.7954 392.08833,604.58113 C 391.33328,604.36686 390.76189,603.90771 390.39457,603.23428 C 390.01704,602.54046 389.94563,601.82623 390.1497,601.07119 C 390.37417,600.30593 390.82311,599.72433 391.51693,599.34682 C 392.20056,598.95908 392.91479,598.86725 393.66983,599.08153 C 394.42489,599.30601 394.99626,599.75495 395.37378,600.44878 M 405.39347,602.65269 C 405.84242,603.2853 406.00567,604.01994 405.86282,604.7954 C 405.73017,605.57085 405.33225,606.18305 404.68944,606.632 C 404.04663,607.09115 403.3324,607.2442 402.55694,607.10135 C 401.78148,606.9687 401.16929,606.57077 400.73053,605.92797 C 400.28161,605.29534 400.13876,604.58113 400.27139,603.81587 C 400.41424,603.03021 400.80196,602.40782 401.44478,601.94866 C 402.08758,601.49972 402.78141,601.33647 403.54667,601.46911 C 404.33232,601.61196 404.94452,601.99968 405.39347,602.65269 M 415.15806,604.08117 C 415.63761,604.70357 415.84168,605.3974 415.73965,606.20345 C 415.63761,606.97891 415.29071,607.61151 414.6683,608.10127 C 414.04589,608.57064 413.34186,608.76449 412.55622,608.67266 C 411.77054,608.57064 411.14814,608.2237 410.66859,607.61151 C 410.19923,606.9891 410.00538,606.29528 410.1074,605.50963 C 410.19923,604.71377 410.55635,604.08117 411.17875,603.59141 C 411.79095,603.10164 412.4848,602.90778 413.25002,602.99959 C 414.04589,603.09144 414.67849,603.45877 415.15806,604.08117 M 425.46342,604.70357 C 426.00421,605.26475 426.26948,605.94837 426.25928,606.75444 C 426.24908,607.52988 425.95319,608.21352 425.392,608.74409 C 424.82061,609.29506 424.137,609.56035 423.35134,609.53994 C 422.56568,609.51954 421.90245,609.23385 421.36167,608.67266 C 420.8311,608.11148 420.56581,607.43806 420.57603,606.6422 C 420.59643,605.84635 420.88212,605.18311 421.44331,604.62195 C 422.0045,604.08117 422.67791,603.81587 423.45337,603.83629 C 424.24921,603.83629 424.91244,604.13218 425.46342,604.70357 M 435.18719,604.62195 C 435.74838,605.18311 436.03406,605.84635 436.05448,606.6422 C 436.06468,607.43806 435.7994,608.11148 435.25862,608.67266 C 434.70763,609.23385 434.03422,609.51954 433.24856,609.53994 C 432.45272,609.56035 431.77929,609.29506 431.2283,608.74409 C 430.67732,608.21352 430.38142,607.52988 430.37122,606.75444 C 430.36102,605.94837 430.62631,605.26475 431.16708,604.70357 C 431.70785,604.13218 432.37108,603.83629 433.14652,603.83629 C 433.94239,603.81587 434.62601,604.08117 435.18719,604.62195 M 445.44155,603.69343 C 446.05375,604.18319 446.41085,604.81581 446.5027,605.60147 C 446.60472,606.38711 446.41085,607.09115 445.93131,607.70335 C 445.44155,608.32576 444.80894,608.68286 444.02328,608.7849 C 443.23762,608.87673 442.54379,608.68286 441.9316,608.21352 C 441.32961,607.71355 440.96227,607.09115 440.87045,606.31569 C 440.77864,605.50963 440.96227,604.80559 441.45203,604.1934 C 441.9316,603.55059 442.55401,603.20367 443.32946,603.11184 C 444.11512,603.02002 444.81914,603.20367 445.44155,603.69343 M 455.16532,602.12212 C 455.80813,602.59148 456.19585,603.21389 456.33869,603.97913 C 456.47136,604.76478 456.31829,605.47902 455.86935,606.12182 C 455.41021,606.75444 454.798,607.15236 454.02254,607.28502 C 453.24708,607.41766 452.53287,607.2646 451.90026,606.81565 C 451.26765,606.36671 450.87993,605.7545 450.74728,604.97907 C 450.60442,604.20361 450.76768,603.46897 451.20642,602.82614 C 451.66559,602.18335 452.26758,601.79561 453.03283,601.65278 C 453.80829,601.52014 454.5225,601.68338 455.16532,602.12212 M 465.1646,599.56109 C 465.85841,599.93861 466.30735,600.5202 466.53184,601.28545 C 466.74611,602.04049 466.66447,602.75473 466.28695,603.44855 C 465.89923,604.13218 465.32784,604.60153 464.57279,604.80559 C 463.80755,605.01988 463.0933,604.93825 462.40968,604.56071 C 461.73625,604.173 461.28731,603.60161 461.07304,602.84656 C 460.84857,602.09151 460.93021,601.35688 461.30773,600.66305 C 461.68525,599.96922 462.24644,599.52026 462.99127,599.30601 C 463.75651,599.09174 464.49116,599.17337 465.1646,599.56109 M 474.52105,596.54091 C 475.22508,596.87761 475.70461,597.42858 475.96992,598.18364 C 476.22499,598.92849 476.17399,599.64271 475.83727,600.37736 C 475.48015,601.07119 474.92917,601.54054 474.19453,601.80583 C 473.4497,602.06091 472.72526,602.00988 472.03143,601.67318 C 471.32739,601.32626 470.84785,600.77528 470.59276,600.03043 C 470.33767,599.28559 470.37849,598.55095 470.71519,597.84692 C 471.06212,597.13269 471.59269,596.65313 472.32732,596.39805 C 473.08238,596.14297 473.8068,596.18378 474.52105,596.54091 M 483.84688,592.50039 C 484.58152,592.79628 485.1121,593.30644 485.4386,594.03088 C 485.75491,594.74511 485.77531,595.46956 485.49982,596.19398 C 485.20394,596.94904 484.70396,597.4592 483.97952,597.78571 C 483.26529,598.10202 482.54085,598.11221 481.81642,597.83672 C 481.09198,597.55103 480.5614,597.06127 480.24511,596.32662 C 479.91861,595.6022 479.89819,594.86756 480.18388,594.14311 C 480.45938,593.40848 480.94914,592.86771 481.65317,592.5616 C 482.37759,592.24529 483.11223,592.21469 483.84688,592.50039 M 492.87683,587.87827 C 493.63189,588.11294 494.20328,588.56189 494.591,589.25572 C 494.96851,589.94955 495.05014,590.66378 494.83587,591.42903 C 494.62162,592.17388 494.15224,592.74527 493.46864,593.12279 C 492.78501,593.51051 492.06056,593.59214 491.31572,593.37787 C 490.56068,593.1636 489.99949,592.70446 489.62198,592.01063 C 489.23424,591.32699 489.15263,590.59235 489.36688,589.83731 C 489.57095,589.08227 490.0199,588.51088 490.70353,588.13336 C 491.38714,587.74563 492.1218,587.66399 492.87683,587.87827 M 501.40681,582.59294 C 502.17208,582.7562 502.77407,583.17454 503.20261,583.83775 C 503.63115,584.50096 503.774,585.21519 503.60053,585.98045 C 503.4373,586.74571 503.02916,587.34771 502.36593,587.76604 C 501.70272,588.20477 500.98847,588.33743 500.23343,588.16396 C 499.46819,588.0007 498.8764,587.58237 498.44786,586.92936 C 498.00912,586.25594 497.87647,585.54171 498.02952,584.77646 C 498.19277,584.01121 498.60089,583.40921 499.24372,582.98068 C 499.90693,582.55213 500.63137,582.40929 501.40681,582.59294 M 509.55928,576.57298 C 510.33473,576.67501 510.96733,577.04233 511.46731,577.67494 C 511.94685,578.28715 512.14072,578.98095 512.03868,579.76663 C 511.94685,580.54207 511.57954,581.17469 510.96733,581.66445 C 510.33473,582.144 509.6409,582.33786 508.87566,582.23582 C 508.10021,582.144 507.4676,581.78689 506.97785,581.16448 C 506.49829,580.53187 506.29422,579.82785 506.38604,579.05239 C 506.47787,578.26673 506.83499,577.63413 507.44719,577.16477 C 508.06959,576.66481 508.77362,576.47095 509.55928,576.57298 M 517.07913,570.1857 C 517.86479,570.23671 518.51781,570.56322 519.03817,571.16522 C 519.55855,571.76721 519.79322,572.45084 519.73201,573.2263 C 519.67079,574.01193 519.34428,574.67516 518.75248,575.18532 C 518.15049,575.7057 517.46686,575.94038 516.69141,575.88935 C 515.91596,575.81794 515.27314,575.48122 514.75276,574.88943 C 514.23241,574.28744 513.99772,573.59361 514.04875,572.82836 C 514.09976,572.0223 514.41607,571.37948 514.99766,570.87953 C 515.59965,570.34895 516.29348,570.12447 517.07913,570.1857 M 524.21127,562.94133 C 524.99691,562.93113 525.68055,563.20663 526.25193,563.7576 C 526.82332,564.29837 527.10901,564.97179 527.12943,565.75744 C 527.12943,566.54311 526.86414,567.21653 526.31316,567.78791 C 525.77238,568.34909 525.10917,568.63478 524.32352,568.6552 C 523.54805,568.6552 522.87462,568.40012 522.31345,567.84913 C 521.73186,567.28796 521.44617,566.62472 521.42575,565.82887 C 521.40536,565.04321 521.67062,564.3698 522.20121,563.8188 C 522.76239,563.23722 523.42561,562.95153 524.21127,562.94133 M 530.93526,555.14598 C 531.72092,555.04394 532.42494,555.24801 533.04734,555.73777 C 533.66977,556.21734 534.03706,556.86014 534.12891,557.63559 C 534.22074,558.42124 534.02688,559.12528 533.5371,559.7477 C 533.04734,560.35988 532.42494,560.71699 531.64951,560.79863 C 530.87405,560.90067 530.18022,560.6966 529.55781,560.20684 C 528.93541,559.73748 528.5681,559.08446 528.46606,558.30902 C 528.36403,557.52336 528.55788,556.82954 529.02724,556.21734 C 529.52721,555.59494 530.15981,555.22761 530.93526,555.14598 M 536.77157,547.19759 C 537.54703,547.06495 538.26125,547.2282 538.91428,547.67714 C 539.55707,548.1363 539.94481,548.73829 540.08765,549.50355 C 540.21008,550.2892 540.05705,550.99323 539.59788,551.63604 C 539.14894,552.29926 538.54695,552.67678 537.77149,552.80942 C 537.00626,552.93186 536.3022,552.77881 535.65941,552.32986 C 535.00639,551.87071 534.60846,551.25851 534.46562,550.48307 C 534.32276,549.70761 534.47582,549.00358 534.91457,548.37097 C 535.38391,547.71797 535.98591,547.32003 536.77157,547.19759 M 542.0875,538.50436 C 542.85274,538.30029 543.57719,538.39211 544.27103,538.79005 C 544.95464,539.18797 545.39338,539.76957 545.59744,540.52461 C 545.79131,541.27965 545.6995,542.01429 545.30156,542.68771 C 544.91383,543.37134 544.33224,543.82029 543.58739,544.00394 C 542.83235,544.20801 542.10791,544.10598 541.42429,543.71825 C 540.74067,543.31011 540.29172,542.73874 540.07744,541.98368 C 539.87337,541.21843 539.9652,540.5042 540.35295,539.83078 C 540.75086,539.15736 541.32226,538.70842 542.0875,538.50436 M 546.6586,529.7907 C 547.40344,529.55603 548.13809,529.60703 548.84211,529.97437 C 549.54614,530.33147 550.01548,530.88246 550.26037,531.6375 C 550.50525,532.38235 550.43383,533.10679 550.08692,533.80061 C 549.7196,534.51485 549.16862,534.98419 548.43397,535.21888 C 547.68914,535.46376 546.97491,535.40255 546.26067,535.03521 C 545.55663,534.6781 545.07707,534.12713 544.83221,533.37207 C 544.58733,532.62723 544.63834,531.9028 544.98525,531.21917 C 545.35256,530.51514 545.90356,530.02538 546.6586,529.7907 M 550.52566,520.38323 C 551.2501,520.08734 551.98474,520.08734 552.71937,520.38323 C 553.45402,520.67912 553.96418,521.18931 554.27029,521.90353 C 554.57639,522.63817 554.58659,523.37282 554.29068,524.09724 C 553.98459,524.82169 553.48464,525.34204 552.7704,525.63795 C 552.04596,525.94405 551.32153,525.94405 550.59707,525.64816 C 549.85224,525.35226 549.33188,524.83188 549.01556,524.11766 C 548.69925,523.39321 548.68907,522.67899 548.98494,521.95454 C 549.28085,521.20971 549.79102,520.69954 550.52566,520.38323 M 553.7295,510.55742 C 554.42332,510.1799 555.14776,510.09827 555.91302,510.31255 C 556.67827,510.52682 557.24966,510.98597 557.62718,511.6798 C 558.0047,512.36341 558.07613,513.08785 557.87206,513.85309 C 557.64759,514.59794 557.19864,515.16932 556.51501,515.53665 C 555.8314,515.91418 555.10695,515.99579 554.35191,515.78153 C 553.58666,515.55705 553.01527,515.10811 552.62755,514.41428 C 552.23981,513.72045 552.15819,513.01642 552.36226,512.27157 C 552.58674,511.50634 553.04588,510.93495 553.7295,510.55742 M 556.11709,501.00711 C 556.7803,500.59897 557.50473,500.48673 558.2802,500.67039 C 559.04545,500.84385 559.63723,501.26219 560.05556,501.92541 C 560.4637,502.59882 560.58614,503.31307 560.40248,504.08851 C 560.22903,504.85376 559.81068,505.43535 559.14747,505.84348 C 558.48427,506.25162 557.77004,506.36386 557.00477,506.20061 C 556.22933,506.01694 555.62733,505.5884 555.20898,504.92519 C 554.79065,504.25176 554.65801,503.54773 554.84166,502.79269 C 555.01512,502.01723 555.44367,501.42544 556.11709,501.00711 M 557.73942,490.85479 C 558.36181,490.36503 559.07605,490.17118 559.86171,490.2834 C 560.64736,490.36503 561.26977,490.72215 561.75952,491.34455 C 562.23908,491.96695 562.43295,492.66078 562.33091,493.45663 C 562.23908,494.24229 561.88197,494.87491 561.26977,495.34425 C 560.65757,495.82382 559.95355,496.00747 559.16789,495.90544 C 558.38222,495.82382 557.73942,495.46669 557.24966,494.84429 C 556.75989,494.22189 556.56603,493.52806 556.65786,492.76282 C 556.75989,491.96695 557.11702,491.33435 557.73942,490.85479 M 558.67812,481.01877 C 559.28012,480.50861 559.97394,480.27393 560.76979,480.33516 C 561.55545,480.39637 562.19826,480.71268 562.71864,481.30447 C 563.2288,481.90647 563.46348,482.6003 563.40225,483.38596 C 563.35125,484.17161 563.02473,484.81443 562.43295,485.32459 C 561.84115,485.82455 561.15754,486.05923 560.36166,485.9878 C 559.57602,485.94699 558.92301,485.62048 558.40263,485.02869 C 557.88225,484.42669 557.64759,483.76348 557.69861,482.97782 C 557.75981,482.19216 558.08632,481.53915 558.67812,481.01877 M 558.67812,470.83585 C 559.22909,470.27467 559.90251,469.98898 560.69838,469.97876 C 561.48404,469.96857 562.16765,470.23386 562.72885,470.78484 C 563.29003,471.33581 563.57572,471.99903 563.58593,472.7847 C 563.60632,473.57035 563.34104,474.24377 562.80027,474.79474 C 562.24929,475.35593 561.58607,475.64163 560.80041,475.66203 C 559.99436,475.67224 559.32092,475.40694 558.74954,474.85597 C 558.17816,474.31519 557.88225,473.66218 557.87206,472.87653 C 557.86186,472.08065 558.12714,471.40724 558.67812,470.83585 M 558.04552,461.06106 C 558.56588,460.46928 559.2189,460.13255 560.01475,460.08154 C 560.80041,460.03052 561.49425,460.26521 562.08603,460.77537 C 562.66762,461.28553 562.99412,461.94876 563.04516,462.73441 C 563.10637,463.50986 562.87169,464.19348 562.36153,464.78527 C 561.84115,465.37708 561.19835,465.68317 560.41269,465.74439 C 559.61683,465.80561 558.92301,465.58115 558.32101,465.06077 C 557.72922,464.55061 557.40271,463.90779 557.34148,463.13233 C 557.29047,462.33648 557.52516,461.64265 558.04552,461.06106 M 556.57623,450.82713 C 557.02517,450.17411 557.64759,449.78638 558.43324,449.65373 C 559.20869,449.5109 559.91273,449.66394 560.55553,450.1333 C 561.19835,450.57203 561.58607,451.19443 561.72892,451.96989 C 561.86156,452.75554 561.70851,453.44937 561.25956,454.08199 C 560.80041,454.72479 560.1882,455.11253 559.41276,455.24517 C 558.63731,455.37781 557.91287,455.23496 557.27005,454.77581 C 556.62726,454.32687 556.22933,453.73507 556.09668,452.96983 C 555.95383,452.18416 556.11709,451.46993 556.57623,450.82713 M 554.43355,441.18497 C 554.86208,440.52175 555.45386,440.10341 556.22933,439.92996 C 556.99457,439.74631 557.7088,439.85853 558.38222,440.27687 C 559.04545,440.69522 559.46378,441.29721 559.64744,442.07266 C 559.8209,442.83792 559.69844,443.54195 559.29031,444.20516 C 558.87198,444.85817 558.26999,445.27651 557.50473,445.46016 C 556.72927,445.63361 556.00485,445.52139 555.34164,445.10305 C 554.66821,444.68471 554.23968,444.10312 554.07642,443.34808 C 553.89276,442.57262 554.01519,441.8584 554.43355,441.18497 M 551.35214,431.38978 C 551.69905,430.67554 552.23981,430.19599 552.99488,429.93069 C 553.74992,429.68581 554.46414,429.71643 555.16817,430.06335 C 555.88241,430.42045 556.36197,430.97145 556.61705,431.70607 C 556.87214,432.46113 556.83133,433.17536 556.48439,433.87938 C 556.13749,434.57321 555.58652,435.04256 554.84166,435.29766 C 554.09682,435.56294 553.36218,435.52212 552.65816,435.18542 C 551.94393,434.84871 551.46438,434.30793 551.20928,433.57329 C 550.9542,432.81823 550.99501,432.0938 551.35214,431.38978 M 547.5565,421.96189 C 547.84218,421.22725 548.34215,420.68648 549.07679,420.37017 C 549.79102,420.05388 550.51544,420.03347 551.2501,420.30896 C 551.98474,420.60485 552.5153,421.09461 552.83162,421.81904 C 553.14792,422.54349 553.16833,423.25771 552.89282,423.99235 C 552.60713,424.7168 552.09697,425.23716 551.38274,425.56367 C 550.6583,425.87997 549.92366,425.90037 549.17882,425.63509 C 548.44418,425.3494 547.92382,424.85963 547.6075,424.14541 C 547.28101,423.42097 547.26058,422.68632 547.5565,421.96189 M 543.25068,413.09521 C 543.50576,412.34015 543.98533,411.79937 544.68935,411.43205 C 545.39338,411.07494 546.11783,411.01372 546.86267,411.2586 C 547.6075,411.50348 548.15848,411.98304 548.51561,412.67686 C 548.88292,413.3911 548.93394,414.10532 548.68907,414.85017 C 548.44418,415.58481 547.97483,416.12559 547.26058,416.49291 C 546.55655,416.86023 545.82192,416.91124 545.07707,416.67657 C 544.33224,416.43169 543.78126,415.97254 543.42413,415.27872 C 543.06703,414.56448 543.00581,413.84004 543.25068,413.09521 M 537.96536,404.2285 C 538.12862,403.45306 538.54695,402.86125 539.21016,402.43272 C 539.87337,401.99397 540.58761,401.86133 541.35287,402.02459 C 542.12832,402.17764 542.72011,402.60618 543.14865,403.26939 C 543.58739,403.92241 543.70982,404.62643 543.54658,405.39169 C 543.38333,406.15693 542.96499,406.75894 542.31197,407.18746 C 541.63856,407.61601 540.92433,407.74865 540.14888,407.5956 C 539.37342,407.44255 538.78164,407.03441 538.35308,406.3712 C 537.92455,405.7182 537.79191,405.00395 537.96536,404.2285 M 532.45556,396.23929 C 532.59841,395.46385 532.99634,394.85165 533.64935,394.3925 C 534.29217,393.94355 534.99618,393.7905 535.77165,393.91293 C 536.54708,394.07619 537.15929,394.45371 537.60823,395.10673 C 538.05718,395.75975 538.22044,396.45357 538.07759,397.21881 C 537.94494,397.98407 537.54703,398.59627 536.90422,399.04522 C 536.2512,399.50437 535.53697,399.65741 534.76151,399.53496 C 533.97585,399.40232 533.37386,399.01461 532.92491,398.38199 C 532.46575,397.72898 532.31272,397.01474 532.45556,396.23929 M 525.854,388.33171 C 525.91521,387.54605 526.24173,386.89305 526.84372,386.37267 C 527.43551,385.8523 528.11914,385.62784 528.90479,385.66865 C 529.69045,385.72986 530.34347,386.06658 530.86383,386.65837 C 531.37402,387.26036 531.60868,387.93379 531.54747,388.71944 C 531.48626,389.49489 531.15973,390.13769 530.56795,390.65807 C 529.96595,391.17845 529.27212,391.41311 528.48646,391.3621 C 527.7008,391.31109 527.05799,390.99478 526.54784,390.40299 C 526.01726,389.80099 525.79277,389.11737 525.854,388.33171 M 518.79329,381.01593 C 518.7831,380.24047 519.05858,379.55684 519.60956,378.97526 C 520.15034,378.41408 520.82377,378.12839 521.60941,378.10797 C 522.39507,378.10797 523.06849,378.37327 523.62968,378.92424 C 524.20106,379.47523 524.48675,380.12823 524.49697,380.90368 C 524.50716,381.68934 524.23167,382.36277 523.69089,382.93414 C 523.13991,383.49533 522.46651,383.79123 521.68085,383.81164 C 520.89517,383.83204 520.22177,383.56676 519.66057,383.03619 C 519.0892,382.48521 518.8035,381.81178 518.79329,381.01593 M 511.47751,374.37356 C 511.42649,373.57769 511.66116,372.88388 512.18153,372.29207 C 512.70191,371.70029 513.35492,371.37378 514.13036,371.31255 C 514.91602,371.27174 515.60985,371.49622 516.20166,372.01658 C 516.80364,372.52676 517.11996,373.17977 517.17097,373.96543 C 517.22199,374.74089 516.98731,375.4245 516.46695,376.00609 C 515.94656,376.61829 515.29354,376.94479 514.50788,377.00602 C 513.72223,377.06723 513.03862,376.84276 512.44682,376.33259 C 511.85503,375.81223 511.52853,375.149 511.47751,374.37356 M 503.27403,368.16993 C 503.14139,367.40467 503.30464,366.69044 503.75358,366.03743 C 504.21274,365.38442 504.82493,365.0069 505.59019,364.86405 C 506.37584,364.73141 507.07986,364.89467 507.73289,365.3436 C 508.3757,365.80276 508.76342,366.40475 508.89607,367.17001 C 509.02871,367.94546 508.86544,368.64949 508.4063,369.29229 C 507.95736,369.95551 507.34517,370.35344 506.5697,370.48608 C 505.79426,370.61874 505.08002,370.47588 504.44741,370.02693 C 503.7944,369.57799 503.40668,368.95559 503.27403,368.16993 M 495.12158,362.84379 C 494.96851,362.06833 495.10116,361.35411 495.5399,360.69089 C 495.96843,360.02766 496.56025,359.60933 497.32547,359.45629 C 498.10093,359.28282 498.81518,359.42568 499.47839,359.85421 C 500.1416,360.28276 500.54974,360.87455 500.70279,361.63981 C 500.85584,362.40504 500.73341,363.10907 500.29465,363.7825 C 499.86613,364.4355 499.26412,364.86405 498.48868,365.0171 C 497.72341,365.20076 497.00919,365.06812 496.36638,364.64979 C 495.70315,364.21104 495.28483,363.61925 495.12158,362.84379 M 486.07121,357.96659 C 485.82633,357.22175 485.88756,356.48711 486.24466,355.78308 C 486.61199,355.07905 487.16298,354.6199 487.90781,354.36483 C 488.65265,354.13014 489.37708,354.18116 490.08112,354.54847 C 490.78515,354.90559 491.2545,355.45657 491.48919,356.19121 C 491.73406,356.94627 491.66264,357.6605 491.30552,358.36452 C 490.9484,359.06856 490.39742,359.54812 489.65258,359.793 C 488.89754,360.04808 488.18329,359.98685 487.48947,359.65014 C 486.78544,359.28282 486.30588,358.72165 486.07121,357.96659 M 476.76578,353.88526 C 476.45968,353.15062 476.45968,352.42619 476.75556,351.68135 C 477.05147,350.9569 477.56164,350.42633 478.28607,350.12024 C 479.0105,349.82434 479.73494,349.82434 480.46958,350.11004 C 481.20423,350.40593 481.71438,350.9059 482.02049,351.63033 C 482.31638,352.35476 482.31638,353.07921 482.02049,353.81385 C 481.72459,354.54847 481.21443,355.06885 480.48999,355.38516 C 479.77576,355.69125 479.05133,355.70145 478.32689,355.41575 C 477.59224,355.11987 477.07187,354.60971 476.76578,353.88526 M 467.48075,350.53857 C 467.14403,349.83454 467.10323,349.1101 467.3583,348.35506 C 467.62358,347.60002 468.09296,347.06945 468.79697,346.71232 C 469.51121,346.38581 470.23564,346.3348 470.99068,346.60008 C 471.73552,346.84496 472.2661,347.33472 472.61302,348.02855 C 472.94973,348.74278 472.99054,349.45702 472.72526,350.21207 C 472.47017,350.9569 471.99061,351.5079 471.27639,351.8446 C 470.57236,352.21192 469.85812,352.25273 469.12349,351.99764 C 468.36843,351.74256 467.82765,351.2528 467.48075,350.53857 M 457.50189,347.92652 C 457.09375,347.25309 456.97132,346.52867 457.14477,345.75321 C 457.32842,344.98796 457.74676,344.38597 458.40999,343.97783 C 459.08339,343.5697 459.79762,343.44726 460.57308,343.62071 C 461.33833,343.80438 461.91992,344.22271 462.33826,344.88593 C 462.7464,345.54914 462.85863,346.26337 462.68518,347.02863 C 462.50151,347.80409 462.08319,348.39587 461.41997,348.82441 C 460.74654,349.25296 460.04251,349.3652 459.28746,349.19173 C 458.51202,349.01827 457.91003,348.58974 457.50189,347.92652 M 447.85974,346.06952 C 447.40058,345.4165 447.24755,344.71247 447.39038,343.92682 C 447.52301,343.15136 447.92095,342.53916 448.56378,342.08001 C 449.20657,341.64127 449.92082,341.47801 450.69626,341.62087 C 451.4717,341.75351 452.08391,342.14123 452.52265,342.78404 C 452.96139,343.42685 453.11444,344.13088 452.98181,344.90632 C 452.83895,345.69198 452.45123,346.3144 451.80841,346.76333 C 451.16562,347.2225 450.46159,347.39595 449.69633,347.25309 C 448.92087,347.11026 448.30867,346.71232 447.85974,346.06952 M 437.57477,344.96756 C 437.0544,344.37575 436.82995,343.68194 436.88094,342.88607 C 436.93196,342.09021 437.25847,341.45761 437.85028,340.92704 C 438.45227,340.42707 439.1359,340.1924 439.93174,340.25361 C 440.7174,340.30464 441.36021,340.62093 441.87037,341.21273 C 442.38056,341.80452 442.60501,342.48815 442.54379,343.284 C 442.49277,344.06966 442.16627,344.72268 441.57448,345.25325 C 440.98269,345.76341 440.29906,346.00829 439.52362,345.94708 C 438.73795,345.89605 438.08493,345.56954 437.57477,344.96756 M 427.71837,344.67166 C 427.17757,344.09007 426.91229,343.40645 426.9327,342.61059 C 426.94291,341.82493 427.22861,341.1617 427.79998,340.62093 C 428.36116,340.08016 429.04479,339.80467 429.83044,339.82507 C 430.61611,339.82507 431.27931,340.12097 431.82009,340.69235 C 432.36086,341.25354 432.62617,341.92696 432.60575,342.70242 C 432.59555,343.50847 432.29965,344.1921 431.73847,344.73287 C 431.1773,345.29406 430.50387,345.54914 429.72841,345.53894 C 428.93255,345.51853 428.26934,345.23284 427.71837,344.67166 M 417.59665,345.21244 C 417.01506,344.69206 416.68856,344.02885 416.63754,343.24319 C 416.57631,342.45754 416.811,341.7637 417.32117,341.17192 C 417.84153,340.59033 418.49455,340.26383 419.2802,340.20259 C 420.06586,340.15159 420.75969,340.37605 421.33107,340.88623 C 421.92287,341.40658 422.23917,342.0596 422.29019,342.84526 C 422.3514,343.64112 422.12694,344.33494 421.60656,344.92674 C 421.09639,345.51853 420.45358,345.86545 419.67812,345.90627 C 418.88227,345.96748 418.18845,345.7226 417.59665,345.21244 M 407.77083,346.3144 C 407.15864,345.82464 406.80152,345.18182 406.6995,344.38597 C 406.60766,343.61052 406.80152,342.91668 407.28109,342.29428 C 407.77083,341.68208 408.41366,341.31475 409.1891,341.22293 C 409.97476,341.13111 410.66859,341.31475 411.2808,341.80452 C 411.88279,342.29428 412.23991,342.91668 412.34193,343.70234 C 412.43377,344.4982 412.23991,345.20223 411.76034,345.82464 C 411.2808,346.43684 410.65839,346.80415 409.88293,346.89599 C 409.09728,346.99802 408.39326,346.80415 407.77083,346.3144 M 397.67974,348.43668 C 397.01653,348.01835 396.59819,347.41635 396.41454,346.6409 C 396.24108,345.87565 396.3533,345.15121 396.77164,344.4982 C 397.19,343.83498 397.78179,343.40645 398.55724,343.23299 C 399.32247,343.05954 400.03672,343.17176 400.69995,343.5901 C 401.35296,344.00845 401.7713,344.60023 401.94475,345.36549 C 402.1284,346.14093 402.00595,346.85517 401.59783,347.52859 C 401.17948,348.20201 400.59789,348.63055 399.84285,348.7938 C 399.06741,348.97746 398.35318,348.86522 397.67974,348.43668 M 387.80293,351.27321 C 387.09891,350.9365 386.61933,350.37532 386.35406,349.63048 C 386.09897,348.88563 386.13977,348.16119 386.48669,347.44697 C 386.8336,346.75314 387.38459,346.26337 388.12944,346.01849 C 388.87428,345.75321 389.5987,345.80422 390.29253,346.14093 C 390.98636,346.48785 391.46594,347.03883 391.721,347.78367 C 391.98629,348.53873 391.94547,349.26315 391.59857,349.97738 C 391.26187,350.68143 390.72109,351.17118 389.98645,351.41606 C 389.2416,351.67115 388.50696,351.63033 387.80293,351.27321 M 378.5587,354.70153 C 377.83427,354.39543 377.32409,353.86486 377.02821,353.13022 C 376.7425,352.39558 376.7425,351.67115 377.04861,350.9569 C 377.35471,350.23248 377.88529,349.7121 378.60974,349.42641 C 379.34436,349.12032 380.0688,349.13051 380.78303,349.44682 C 381.49726,349.74272 382.00743,350.27329 382.29312,351.00792 C 382.58902,351.74256 382.58902,352.467 382.29312,353.20165 C 381.98701,353.92607 381.46666,354.43625 380.75243,354.73214 C 380.01779,355.02804 379.28314,355.01784 378.5587,354.70153 M 369.3655,359.02774 C 368.62065,358.77266 368.06968,358.30331 367.70236,357.58907 C 367.34524,356.88505 367.28402,356.16062 367.52891,355.41575 C 367.77378,354.67092 368.25334,354.10974 368.95736,353.75262 C 369.66139,353.40571 370.37565,353.34449 371.12047,353.58937 C 371.85512,353.83425 372.40609,354.30359 372.76322,355.01784 C 373.12032,355.71166 373.19176,356.44629 372.94687,357.20135 C 372.7122,357.94619 372.24284,358.49716 371.54901,358.85429 C 370.84499,359.21141 370.12054,359.27262 369.3655,359.02774 M 360.58044,363.90494 C 359.81518,363.70088 359.23359,363.27233 358.82545,362.58871 C 358.41733,361.90509 358.30509,361.19086 358.49895,360.4256 C 358.69281,359.66036 359.13156,359.07876 359.80498,358.68083 C 360.47839,358.2727 361.19263,358.16046 361.94768,358.36452 C 362.70272,358.54819 363.28431,358.98693 363.69245,359.66036 C 364.10058,360.34397 364.20261,361.06841 364.01896,361.83366 C 363.83531,362.59891 363.41697,363.1805 362.74354,363.58864 C 362.07013,363.98657 361.34567,364.0886 360.58044,363.90494 M 352.32594,369.50657 C 351.55048,369.37392 350.92809,368.976 350.47913,368.32298 C 350.03019,367.66997 349.86694,366.96594 349.99958,366.19048 C 350.14241,365.41502 350.54035,364.80283 351.18318,364.35388 C 351.83619,363.90494 352.52999,363.73148 353.29525,363.87433 C 354.0707,364.01717 354.67269,364.42531 355.13187,365.05792 C 355.59101,365.71092 355.74404,366.42516 355.6114,367.19041 C 355.47877,367.97606 355.10125,368.58826 354.45844,369.02701 C 353.81563,369.48616 353.10139,369.63921 352.32594,369.50657 M 344.25511,375.90406 C 343.46943,375.86324 342.81644,375.52653 342.29606,374.92453 C 341.77569,374.33275 341.54102,373.63892 341.60224,372.85326 C 341.66346,372.07781 341.98998,371.4146 342.58175,370.90442 C 343.17354,370.38406 343.86737,370.15957 344.64283,370.2106 C 345.41828,370.28201 346.06108,370.60852 346.58146,371.20032 C 347.10184,371.80231 347.3365,372.48594 347.28548,373.2716 C 347.24467,374.06745 346.91818,374.71027 346.33659,375.21023 C 345.73458,375.74081 345.04076,375.96527 344.25511,375.90406 M 336.92911,382.56684 C 336.14346,382.54643 335.47003,382.24033 334.92926,381.66894 C 334.37829,381.10775 334.10278,380.43434 334.1232,379.65888 C 334.1436,378.86303 334.42929,378.19982 335.00068,377.64882 C 335.56187,377.10805 336.2353,376.84276 337.02094,376.85297 C 337.7964,376.87337 338.45961,377.15906 339.01058,377.73045 C 339.55136,378.30184 339.82686,378.98546 339.81665,379.77112 C 339.80647,380.56698 339.52076,381.21999 338.96977,381.77097 C 338.39839,382.31174 337.71476,382.57703 336.92911,382.56684 M 330.04186,390.03567 C 329.25619,390.07648 328.56239,389.852 327.96038,389.32144 C 327.36859,388.80107 327.04208,388.15825 326.98086,387.3828 C 326.94004,386.58694 327.17472,385.89312 327.68489,385.30132 C 328.20526,384.70954 328.85827,384.38303 329.63374,384.332 C 330.40918,384.28099 331.0928,384.52587 331.6846,385.04625 C 332.28659,385.55641 332.61311,386.20942 332.67431,387.00528 C 332.73555,387.78073 332.51106,388.47456 332.0009,389.05615 C 331.48053,389.65815 330.82752,389.97445 330.04186,390.03567 M 323.85863,397.67796 C 323.08319,397.75959 322.37917,397.56573 321.74656,397.07597 C 321.13434,396.59641 320.76702,395.97401 320.67521,395.18835 C 320.58337,394.4129 320.77724,393.70887 321.267,393.08646 C 321.74656,392.46406 322.38936,392.10694 323.15461,392.01512 C 323.93007,391.92329 324.6239,392.11715 325.24629,392.5967 C 325.8687,393.09667 326.23602,393.72928 326.33805,394.51494 C 326.44009,395.29038 326.25644,395.99442 325.77686,396.59641 C 325.2871,397.21881 324.6443,397.58613 323.85863,397.67796 M 318.21619,406.15693 C 317.45095,406.32018 316.72652,406.18754 316.06329,405.7488 C 315.40008,405.32026 314.99194,404.72848 314.82869,403.96322 C 314.66544,403.18777 314.79809,402.47354 315.22663,401.81032 C 315.66537,401.1573 316.25716,400.74917 317.0122,400.57572 C 317.77747,400.42266 318.49169,400.5655 319.1549,400.98385 C 319.81811,401.41238 320.23647,402.02459 320.3997,402.78983 C 320.57317,403.55508 320.45074,404.26931 320.02218,404.92233 C 319.59364,405.58554 318.99165,405.99368 318.21619,406.15693 M 313.13495,415.10525 C 312.37991,415.32973 311.65546,415.2685 310.94122,414.91139 C 310.23721,414.55427 309.76783,413.99308 309.52295,413.25846 C 309.28828,412.5034 309.34949,411.77898 309.70662,411.07494 C 310.06374,410.37091 310.61473,409.90156 311.35956,409.66687 C 312.0942,409.42199 312.81863,409.50362 313.52267,409.85054 C 314.2267,410.21787 314.70625,410.76884 314.95113,411.51368 C 315.20621,412.26874 315.15519,412.99316 314.79809,413.6768 C 314.44097,414.38082 313.87978,414.86037 313.13495,415.10525 M 308.90055,424.01277 C 308.15571,424.29847 307.43129,424.27805 306.69664,423.94135 C 305.98242,423.63523 305.48244,423.10467 305.20695,422.37003 C 304.92127,421.63539 304.95186,420.90075 305.26817,420.17632 C 305.58447,419.46208 306.11505,418.97231 306.83948,418.68662 C 307.56392,418.42134 308.28835,418.43154 309.01279,418.75805 C 309.73723,419.08456 310.24739,419.61513 310.5229,420.34978 C 310.81878,421.08442 310.80858,421.80884 310.49228,422.51287 C 310.16577,423.23731 309.6352,423.74747 308.90055,424.01277 M 305.35999,433.52226 C 304.64576,433.87938 303.92133,433.91 303.16629,433.65492 C 302.42145,433.38962 301.87047,432.92028 301.53377,432.20604 C 301.18683,431.51222 301.14603,430.77757 301.4011,430.03273 C 301.65618,429.28789 302.14594,428.7369 302.83977,428.4002 C 303.54381,428.07368 304.26824,428.02268 305.0131,428.28796 C 305.76813,428.53284 306.31912,429.0328 306.66602,429.72662 C 307.01295,430.44087 307.06396,431.15509 306.80888,431.88974 C 306.55379,432.63458 306.06403,433.18555 305.35999,433.52226 M 302.54388,443.01137 C 301.85005,443.38889 301.12563,443.46032 300.36037,443.24605 C 299.60532,443.03177 299.03395,442.58282 298.65643,441.89921 C 298.27891,441.19518 298.19727,440.47074 298.41154,439.7157 C 298.63601,438.96063 299.08495,438.39947 299.76858,438.02195 C 300.4522,437.65462 301.16643,437.56279 301.92147,437.77707 C 302.68673,438.01173 303.26833,438.47089 303.65605,439.1443 C 304.04377,439.82794 304.12539,440.55236 303.91112,441.29721 C 303.69687,442.05226 303.23771,442.62364 302.54388,443.01137 M 300.50322,453.07185 C 299.86041,453.5106 299.13596,453.66364 298.36052,453.531 C 297.58508,453.39836 296.97287,453.00042 296.52393,452.36783 C 296.07497,451.70461 295.91172,451.00058 296.05456,450.22512 C 296.18721,449.43947 296.57493,448.82726 297.22796,448.38852 C 297.86055,447.94979 298.56458,447.80693 299.34004,447.93957 C 300.12568,448.08243 300.74809,448.45995 301.20725,449.11296 C 301.65618,449.75578 301.81944,450.45981 301.6868,451.22505 C 301.54395,452.0005 301.15623,452.61271 300.50322,453.07185 M 299.15637,462.84664 C 298.53397,463.3262 297.82995,463.50986 297.04429,463.41803 C 296.25862,463.3262 295.62602,462.95888 295.14646,462.34668 C 294.66692,461.71408 294.47305,461.02025 294.56487,460.24479 C 294.65672,459.45914 295.02403,458.82653 295.63622,458.35717 C 296.25862,457.87763 296.95245,457.68376 297.73811,457.78579 C 298.52376,457.87763 299.15637,458.23474 299.64614,458.85714 C 300.1461,459.46933 300.33997,460.17337 300.23793,460.93862 C 300.1461,461.71408 299.78898,462.3671 299.15637,462.84664 M 298.71763,473.152 C 298.14624,473.70299 297.46263,473.95807 296.66675,473.94787 C 295.8811,473.92746 295.21789,473.64176 294.66692,473.09079 C 294.12615,472.5092 293.86084,471.83579 293.87106,471.03992 C 293.88126,470.25426 294.17715,469.60124 294.73834,469.06047 C 295.29951,468.5299 295.98314,468.26462 296.7688,468.27482 C 297.55446,468.28502 298.22787,468.57071 298.77886,469.1421 C 299.32984,469.70329 299.60532,470.3665 299.59512,471.15216 C 299.57471,471.94801 299.27882,472.61123 298.71763,473.152 M 427.22861,639.61936 C 427.22861,637.60931 428.86113,635.98698 430.87118,635.98698 C 432.88124,635.98698 434.50358,637.60931 434.50358,639.61936 C 434.50358,641.61922 432.88124,643.26196 430.87118,643.26196 C 428.86113,643.26196 427.22861,641.61922 427.22861,639.61936 M 554.48456,377.2611 C 554.48456,375.26124 556.11709,373.63892 558.12714,373.63892 C 560.127,373.63892 561.75952,375.26124 561.75952,377.2611 C 561.75952,379.29156 560.127,380.90368 558.12714,380.90368 C 556.11709,380.90368 554.48456,379.29156 554.48456,377.2611 M 292.78949,377.2611 C 292.78949,375.26124 294.41183,373.63892 296.42188,373.63892 C 298.43194,373.63892 300.05428,375.26124 300.05428,377.2611 C 300.05428,379.29156 298.43194,380.90368 296.42188,380.90368 C 294.41183,380.90368 292.78949,379.29156 292.78949,377.2611 M 463.39941,643.65988 C 463.55246,643.83335 463.981,644.17005 464.02182,644.46595 C 464.10344,645.00672 463.33819,645.02714 462.99127,645.08835 L 456.12444,646.18011 C 455.11431,646.32296 454.54292,646.25153 454.35926,645.15978 C 454.21641,644.25168 453.54298,643.73131 452.56347,643.88436 C 451.40028,644.06802 451.01256,644.97611 451.18601,646.02706 C 451.35947,647.15962 452.22677,648.25139 453.19608,648.86359 C 454.25723,649.53701 455.33877,649.61863 456.56318,649.42477 L 463.44022,648.33301 C 464.48096,648.17996 465.2156,648.04732 466.04208,647.32288 C 467.02159,646.4352 467.46033,645.24141 467.25626,643.94557 C 467.08281,642.81301 466.59305,642.23142 465.76659,641.45597 L 452.39002,628.91608 C 452.22677,628.74261 451.69619,628.32428 451.66559,628.07939 C 451.58394,627.58963 452.41042,627.55903 452.6655,627.51822 L 459.69561,626.40606 C 460.6139,626.26321 461.14447,626.31421 461.29753,627.27334 C 461.44036,628.15082 462.14439,628.83446 463.0831,628.7018 C 464.21569,628.51815 464.66461,627.51822 464.49116,626.47747 C 464.31772,625.33471 463.48104,624.28376 462.49131,623.69197 C 461.38935,623.03895 460.28738,622.98794 459.05278,623.1818 L 451.93086,624.31437 C 449.68613,624.67149 448.03319,626.19178 448.42091,628.62017 C 448.60458,629.72214 449.20657,630.39556 449.98203,631.13019 L 463.39941,643.65988 z M 490.0199,637.37464 L 485.55084,639.18063 C 484.75498,639.50713 484.204,640.22136 484.64274,641.33353 C 485.08148,642.41508 485.98958,642.54772 486.78544,642.23142 L 498.76416,637.38483 C 499.56002,637.06852 500.111,636.3441 499.67224,635.25234 C 499.23352,634.15038 498.32542,634.02795 497.53976,634.33404 L 493.0605,636.15023 L 485.95898,618.56988 L 490.42803,616.76391 C 491.22389,616.4476 491.78508,615.71296 491.33614,614.62121 C 490.89738,613.52945 489.99949,613.39679 489.20364,613.71312 L 477.21472,618.55969 C 476.42906,618.876 475.86787,619.59023 476.30661,620.69218 C 476.75556,621.79415 477.65346,621.9166 478.44932,621.60029 L 482.91839,619.79429 L 490.0199,637.37464 z M 523.41541,618.79437 C 523.62968,618.88619 524.15003,619.02904 524.30309,619.27393 C 524.6092,619.74328 523.92557,620.06978 523.61947,620.27385 L 517.78318,624.05929 C 516.93628,624.61027 516.38531,624.78372 515.7731,623.84501 C 515.27314,623.06957 514.43648,622.8655 513.61001,623.40628 C 512.62028,624.04908 512.64069,625.05921 513.21207,625.9265 C 513.84468,626.89582 515.07929,627.53862 516.20166,627.70186 C 517.45665,627.87533 518.47699,627.52841 519.51773,626.84479 L 525.35405,623.04916 C 526.24173,622.48798 526.87434,622.06963 527.31308,621.0697 C 527.85385,619.86572 527.77222,618.59031 527.05799,617.48834 C 526.43559,616.51903 525.75196,616.19252 524.69082,615.8252 L 507.36557,609.81544 C 507.1513,609.72361 506.49829,609.56035 506.35544,609.33587 C 506.09015,608.92774 506.82479,608.56042 507.04926,608.42777 L 513.0182,604.54031 C 513.79366,604.04035 514.30382,603.85669 514.83441,604.68316 C 515.32416,605.43821 516.24248,605.76472 517.03832,605.25454 C 518.00763,604.62195 517.99743,603.54039 517.42606,602.66289 C 516.80364,601.69359 515.60985,601.06097 514.46708,600.93853 C 513.20187,600.77528 512.17134,601.17321 511.12038,601.85684 L 505.06982,605.78511 C 503.17199,607.02992 502.28431,609.09099 503.62093,611.15207 C 504.22294,612.09078 505.04942,612.4479 506.06975,612.81522 L 523.41541,618.79437 z M 530.60875,594.25535 L 550.15835,603.65262 L 553.42341,600.79569 L 537.7511,582.77661 C 537.06747,581.98074 536.33282,581.8277 535.44513,582.60314 C 534.54724,583.3888 534.58806,584.12344 535.28189,584.91931 L 547.11775,598.55095 L 527.71102,589.32715 L 524.44594,592.16367 L 540.11826,610.20316 C 540.81209,610.98881 541.54673,611.12147 542.43441,610.35621 C 543.3323,609.58075 543.2813,608.83591 542.59767,608.05026 L 530.60875,594.25535 z M 555.12736,564.29837 L 561.31058,569.12455 L 558.3414,572.9304 C 557.81084,573.59361 557.68841,574.50171 558.61691,575.22613 C 559.54541,575.95058 560.39227,575.61387 560.92286,574.94044 L 563.89203,571.14481 L 570.07524,575.97098 L 563.12678,584.86829 C 562.59621,585.54171 562.47376,586.43959 563.40225,587.17424 C 564.33077,587.89868 565.17764,587.56197 565.70821,586.88854 L 574.67694,575.40981 L 554.55598,559.68646 L 545.58725,571.16522 C 545.05668,571.83863 544.94443,572.74673 545.87295,573.48137 C 546.80144,574.1956 547.64832,573.85889 548.1789,573.18547 L 555.12736,564.29837 z M 567.1877,548.7689 L 588.85957,549.77904 L 590.75738,545.89156 L 569.28958,535.41273 C 568.34067,534.9536 567.61624,535.10664 567.09587,536.16778 C 566.5755,537.23913 566.90199,537.91255 567.85091,538.37171 L 584.07422,546.27929 L 562.6064,545.38139 L 560.70859,549.26886 L 582.18659,559.73748 C 583.12531,560.20684 583.85994,560.03338 584.38031,558.98244 C 584.89048,557.92129 584.56398,557.24787 583.61506,556.78872 L 567.1877,548.7689 z M 582.27843,520.79137 L 583.6967,515.83254 L 591.54304,520.76076 L 582.27843,520.79137 z M 578.27871,508.54737 C 577.5849,508.11882 576.51355,508.73103 576.25845,509.60851 C 575.98299,510.58803 576.65639,511.34309 577.35021,511.77162 L 580.78874,514.04696 L 578.87052,520.78117 L 574.74837,520.86279 C 573.93211,520.86279 572.96278,521.13828 572.68729,522.1076 C 572.422,522.98508 573.00359,524.06663 573.83007,524.06663 L 596.9202,524.10745 C 597.80788,524.11766 598.70579,523.9646 599.00168,522.93407 C 599.2976,521.91372 598.63438,521.35255 597.85892,520.86279 L 578.27871,508.54737 z M 604.5319,497.42574 L 605.29715,482.88599 C 605.33795,482.02891 604.92981,481.21264 603.74625,481.16163 C 602.56265,481.1004 602.0627,481.86566 602.02187,482.71254 L 601.4913,492.80363 L 581.95193,480.00865 L 579.89086,479.90661 L 579.1256,494.45657 C 579.08479,495.31364 579.50312,496.11971 580.6765,496.19114 C 581.86009,496.25235 582.36006,495.48711 582.40087,494.61982 L 582.93143,484.49812 L 602.39939,497.3237 L 604.5319,497.42574 z M 579.60515,463.16295 C 579.71738,464.79549 580.19695,466.05049 581.55399,467.11164 C 582.8396,468.09116 584.0334,468.17279 585.53329,468.07075 L 603.79725,466.79533 C 604.8482,466.7239 605.39918,466.22395 605.32776,465.04037 C 605.23592,463.86698 604.61352,463.44864 603.57278,463.53027 L 585.30882,464.80569 C 583.47222,464.92813 582.97224,464.39755 582.87022,462.92826 L 582.48248,457.36745 C 582.38046,455.88797 582.79879,455.30638 584.6354,455.16354 L 602.89936,453.89832 C 603.94009,453.81669 604.50129,453.31673 604.41965,452.15355 C 604.33803,450.96997 603.71564,450.55163 602.6749,450.62306 L 584.40071,451.89848 C 582.90084,452.01071 581.72744,452.26578 580.59488,453.41876 C 579.40109,454.65336 579.09498,455.9594 579.20722,457.60213 L 579.60515,463.16295 z M 583.4314,432.62438 L 582.00294,427.67576 L 591.25735,427.68597 L 583.4314,432.62438 z M 573.54437,424.35968 C 572.7179,424.35968 572.14652,425.45144 572.40161,426.32892 C 572.68729,427.30845 573.6464,427.57373 574.46267,427.57373 L 578.59503,427.69616 L 580.52346,434.42016 L 577.07472,436.6649 C 576.3809,437.11385 575.70748,437.84847 575.98299,438.82799 C 576.23806,439.7055 577.29921,440.3279 577.99302,439.88915 L 597.60385,427.67576 C 598.35889,427.21661 599.04249,426.62482 598.73641,425.57388 C 598.4507,424.55354 597.59362,424.4413 596.67532,424.43111 L 573.54437,424.35968 z M 581.50298,392.04573 L 584.18646,397.32085 C 585.54349,399.98391 584.50276,401.34096 582.05396,402.59597 C 579.82963,403.72853 578.26851,402.97349 577.19717,400.87161 L 574.5137,395.61689 L 581.50298,392.04573 z M 571.58533,397.10657 L 574.2688,402.3613 C 575.62586,405.02437 574.59532,406.40181 572.13631,407.64662 C 569.9222,408.77919 568.36109,408.03435 567.28974,405.92225 L 564.60626,400.65734 L 571.58533,397.10657 z M 560.1882,399.22887 L 564.36138,407.41195 C 566.24899,411.12596 569.79976,412.52382 573.626,410.56477 C 575.78911,409.46281 577.20736,408.41187 577.942,405.95287 C 580.10513,406.78954 581.84989,406.38142 583.53344,405.52433 C 587.66578,403.42244 589.29832,400.12677 587.1046,395.82096 L 582.94166,387.63789 L 560.1882,399.22887 z M 542.76092,347.06945 L 543.53637,340.08016 L 540.44476,337.38648 L 524.77246,355.41575 C 524.07864,356.22183 524.03781,356.95647 524.92549,357.73193 C 525.82339,358.50738 526.55804,358.36452 527.24167,357.56867 L 539.94481,342.9575 L 539.3122,348.54892 L 538.96528,348.93665 C 538.30207,349.7019 538.02658,350.72224 538.91428,351.5079 C 539.85298,352.32415 540.78148,351.8548 541.44468,351.08954 L 541.79162,350.69162 L 547.17896,349.25296 L 534.52682,363.90494 C 533.83301,364.7008 533.7922,365.44564 534.69008,366.2109 C 535.57777,366.99655 536.31243,366.8435 537.00626,366.05784 L 552.67856,348.02855 L 549.57676,345.32468 L 542.76092,347.06945 z M 509.84497,346.9572 C 511.22244,347.8449 512.51824,348.21222 514.17118,347.77347 C 515.74249,347.34493 516.52815,346.43684 517.34442,345.17162 L 527.32327,329.81561 C 527.89467,328.92791 527.82326,328.20348 526.83353,327.55046 C 525.8438,326.90765 525.13976,327.14233 524.5684,328.03003 L 514.58952,343.38603 C 513.58961,344.92674 512.87536,345.00837 511.64076,344.2023 L 506.95743,341.17192 C 505.72283,340.36585 505.50856,339.68223 506.50849,338.13132 L 516.47713,322.7753 C 517.04854,321.89782 516.98731,321.16318 515.9976,320.51017 C 515.00787,319.85715 514.29363,320.11223 513.72223,320.97953 L 503.75358,336.34574 C 502.93732,337.61094 502.41695,338.69251 502.67203,340.29442 C 502.93732,342.00859 503.7944,343.02892 505.17185,343.91661 L 509.84497,346.9572 z M 485.07128,310.4905 L 491.94833,313.00051 C 492.87683,313.32703 494.08083,313.94943 493.63189,315.19423 L 492.85643,317.31653 C 492.40749,318.54092 491.03002,318.11239 490.16273,317.79608 L 483.32651,315.30647 L 485.07128,310.4905 z M 482.19396,318.39808 L 482.90817,318.65316 L 486.98951,333.89694 C 487.15276,334.51934 487.41805,335.0193 488.03026,335.25398 C 488.89754,335.57029 489.82603,335.23358 490.13214,334.3765 C 490.34641,333.79491 490.13214,333.05007 489.95867,332.46847 L 486.64259,320.0102 L 489.46893,321.04074 C 491.94833,321.93864 494.88689,321.33663 495.93784,318.42869 L 496.71328,316.30639 C 497.71321,313.56169 495.90722,310.94964 493.46864,310.06196 L 483.11223,306.29693 L 474.93939,328.74426 C 474.58227,329.73398 474.80674,330.43801 475.9189,330.84614 C 477.02085,331.24408 477.66366,330.85634 478.02078,329.86662 L 482.19396,318.39808 z M 461.28731,311.21494 C 461.62403,312.23526 461.78728,312.89848 461.61383,313.94943 C 461.48118,314.80651 461.19549,315.35749 460.72613,316.0105 L 456.64481,321.67334 C 456.34891,322.09169 456.0326,322.57124 455.38979,322.47941 C 454.73677,322.36717 454.59393,321.8162 454.44088,321.32643 L 452.29818,314.67385 C 452.05329,313.90861 451.95128,313.29641 452.09411,312.44953 C 452.25736,311.37818 452.61449,310.817 453.24708,309.93952 L 457.09375,304.53175 C 457.44066,304.0624 457.67534,303.63385 458.34875,303.74609 C 459.03238,303.84813 459.12421,304.32768 459.29766,304.88887 L 461.28731,311.21494 z M 462.36888,303.7767 C 461.8281,302.13396 460.68532,300.78712 458.85893,300.50143 C 457.05294,300.21574 455.54284,301.13404 454.5225,302.5319 L 450.25752,308.47024 C 449.45146,309.64362 449.07394,310.54151 448.84947,311.93937 C 448.60458,313.49028 448.86987,314.53101 449.30861,315.95949 L 451.34927,322.39778 C 451.87984,324.08134 452.99201,325.40777 454.86942,325.72407 C 456.74683,326.00977 458.22632,325.08126 459.25685,323.65279 L 463.17494,318.1532 C 464.03202,316.939 464.61361,316.0309 464.85848,314.4698 C 465.08297,313.07194 465.00133,312.09242 464.58299,310.73538 L 462.36888,303.7767 z M 427.18779,301.032 L 432.00376,300.78712 C 432.85064,300.73611 433.61589,300.24635 433.55465,299.05255 C 433.49345,297.87918 432.67717,297.46085 431.83029,297.51186 L 418.92309,298.18527 C 418.06601,298.22609 417.30077,298.73627 417.37216,299.91984 C 417.4232,301.08303 418.23947,301.50137 419.08634,301.46055 L 423.91251,301.21567 L 424.90224,320.14284 L 420.08626,320.39793 C 419.2292,320.44895 418.46393,320.94891 418.53537,322.1325 C 418.59657,323.29568 419.40265,323.72422 420.24951,323.6834 L 433.16694,322.99978 C 434.01381,322.94876 434.77907,322.459 434.71785,321.27542 C 434.65663,320.10203 433.85055,319.67349 432.99349,319.71431 L 428.1775,319.97959 L 427.18779,301.032 z M 394.27184,304.39911 L 394.65956,304.33789 C 396.15945,304.09301 396.44513,304.01139 397.34303,305.29701 L 400.904,310.34764 C 401.50599,311.22514 401.95495,311.79653 402.1284,312.88827 C 402.26105,313.69434 402.08758,314.28613 401.8427,315.08199 L 399.91429,321.31624 C 399.51635,322.59166 399.22046,322.80592 397.85321,323.02018 L 397.24102,323.13242 L 394.27184,304.39911 z M 393.99635,323.64258 L 392.44543,323.88746 C 391.59857,324.0201 390.89454,324.6017 391.07819,325.76489 C 391.26187,326.92806 392.11892,327.26477 392.95561,327.12193 L 398.34297,326.27505 C 400.8632,325.86692 402.21002,324.89761 402.97528,322.41818 L 404.98534,316.05132 C 405.39347,314.78609 405.56694,313.63312 405.36286,312.34751 C 405.12817,310.84762 404.65884,309.95992 403.80174,308.73552 L 400.04692,303.48081 C 398.58783,301.45034 397.16958,300.61367 394.62896,301.0116 L 389.22118,301.86868 C 388.22127,302.03194 387.41519,302.61353 387.59886,303.7869 C 387.79271,305.02151 388.76205,305.27659 389.83339,305.10313 L 391.03738,304.90927 L 393.99635,323.64258 z M 374.70185,333.12148 C 376.22215,332.50928 377.26288,331.66241 377.84447,330.05028 C 378.39544,328.51979 378.09956,327.3566 377.53839,325.95874 L 370.68174,308.9804 C 370.29402,308.01109 369.64099,307.63357 368.53904,308.0723 C 367.44728,308.52125 367.24322,309.23548 367.64114,310.215 L 374.49778,327.18315 C 375.19162,328.88709 374.84468,329.52991 373.47744,330.08089 L 368.30435,332.17257 C 366.9269,332.72356 366.24327,332.49908 365.54945,330.79513 L 358.69281,313.82698 C 358.30509,312.85767 357.65208,312.48014 356.55012,312.92909 C 355.45837,313.35764 355.2543,314.09227 355.65222,315.05139 L 362.50887,332.03993 C 363.07004,333.42759 363.67204,334.46832 365.13111,335.19277 C 366.67183,335.93761 368.00847,335.83557 369.52875,335.21317 L 374.70185,333.12148 z M 333.63344,329.29523 L 344.8571,346.58988 C 345.42848,347.46738 346.13252,347.71225 347.13243,347.06945 C 348.12216,346.42663 348.18338,345.68178 347.61201,344.7941 L 336.37813,327.50965 L 339.0514,325.77509 L 339.70441,326.77501 C 340.2758,327.65251 340.96963,327.89737 341.96956,327.25457 C 342.95927,326.60156 343.02051,325.86692 342.44912,324.98943 L 340.02072,321.23461 L 326.41969,330.06049 L 328.85827,333.81531 C 329.42967,334.70301 330.13369,334.93767 331.12342,334.29487 C 332.12334,333.65206 332.17435,332.90721 331.61318,332.02973 L 330.97037,331.04001 L 333.63344,329.29523 z M 307.27823,352.36496 C 307.05376,352.32415 306.51297,352.28334 306.31912,352.06907 C 305.93138,351.67115 306.53339,351.2222 306.79866,350.96711 L 311.79832,346.13073 C 312.53296,345.4369 313.05331,345.15121 313.82876,345.96748 C 314.46137,346.63069 315.31845,346.65111 316.03269,345.98789 C 316.87957,345.15121 316.6653,344.1717 315.94085,343.42685 C 315.13479,342.60037 313.79816,342.20246 312.65537,342.25347 C 311.40037,342.3249 310.47186,342.86567 309.57398,343.73295 L 304.56414,348.54892 C 303.8091,349.29377 303.26833,349.82434 303.02344,350.87528 C 302.71733,352.18131 303.04384,353.40571 303.95194,354.35462 C 304.758,355.18109 305.49266,355.38516 306.60481,355.5382 L 324.75653,358.11964 C 324.98102,358.18088 325.65443,358.21147 325.8381,358.40534 C 326.185,358.76246 325.52179,359.25222 325.33812,359.43588 L 320.20585,364.38449 C 319.54264,365.0171 319.08348,365.29259 318.39986,364.58856 C 317.78767,363.94576 316.80813,363.8029 316.12453,364.45592 C 315.29805,365.25178 315.51232,366.32312 316.24696,367.07818 C 317.04282,367.89443 318.32844,368.29237 319.47121,368.20055 C 320.74662,368.0985 321.68534,367.51691 322.58321,366.65983 L 327.77673,361.63981 C 329.40925,360.05828 329.88881,357.87476 328.17465,356.09939 C 327.3992,355.30353 326.52171,355.08926 325.46056,354.93621 L 307.27823,352.36496 z M 271.50536,404.26931 C 271.27067,404.31012 270.76051,404.45298 270.49523,404.32034 C 269.99525,404.07546 270.41359,403.45306 270.56664,403.11634 L 273.61744,396.87191 C 274.06639,395.95361 274.4541,395.52506 275.46425,396.01482 C 276.28051,396.41275 277.10699,396.15766 277.53551,395.28018 C 278.0559,394.21903 277.51511,393.36196 276.5764,392.91301 C 275.54587,392.40284 274.14801,392.49468 273.09706,392.92322 C 271.94408,393.43338 271.24005,394.24964 270.69928,395.37201 L 267.64848,401.62665 C 267.18935,402.56536 266.85264,403.24899 266.98528,404.33054 C 267.14853,405.64677 267.87295,406.6977 269.05654,407.27929 C 270.08709,407.78947 270.85235,407.70784 271.95428,407.49358 L 289.89175,403.70814 C 290.12644,403.66732 290.76923,403.48365 291.00392,403.59589 C 291.44266,403.81017 290.99372,404.50399 290.88147,404.73867 L 287.75925,411.13616 C 287.36132,411.97283 287.00421,412.38096 286.12673,411.94223 C 285.33087,411.56469 284.36154,411.74836 283.94322,412.60544 C 283.44324,413.62577 284.01463,414.56448 284.95335,415.02362 C 285.98388,415.5236 287.33071,415.45217 288.37145,414.97261 C 289.53463,414.45225 290.21826,413.58497 290.76923,412.46259 L 293.93228,405.97328 C 294.93219,403.94281 294.6261,401.70828 292.41197,400.63693 C 291.41204,400.14717 290.51416,400.24921 289.46322,400.46348 L 271.50536,404.26931 z M 274.54593,430.85921 L 273.12768,435.80782 L 265.28132,430.91021 L 274.54593,430.85921 z M 278.54564,443.1032 C 279.23946,443.54195 280.30061,442.91954 280.5557,442.04204 C 280.84139,441.06254 280.16798,440.3279 279.46395,439.88915 L 276.02542,437.60361 L 277.95385,430.88981 L 282.07599,430.80819 C 282.89227,430.80819 283.86159,430.5225 284.13707,429.54297 C 284.39216,428.66549 283.82079,427.57373 282.99429,427.58392 L 259.89396,427.56352 C 259.01646,427.53292 258.11858,427.68597 257.81248,428.7267 C 257.52679,429.73684 258.18999,430.29802 258.96546,430.80819 L 278.54564,443.1032 z M 255.55754,464.2139 L 276.13766,465.28525 C 277.18861,465.34646 277.80079,464.91793 277.86203,463.74454 C 277.92325,462.56095 277.36206,462.07119 276.31111,462.00998 L 255.731,460.92842 L 255.89425,457.75519 L 257.07783,457.8164 C 258.12878,457.87763 258.74099,457.44908 258.8022,456.2757 C 258.86343,455.08191 258.29203,454.59215 257.2513,454.54114 L 252.79243,454.31666 L 251.94556,470.48894 L 256.39423,470.73382 C 257.44515,470.78484 258.06755,470.3563 258.12878,469.18291 C 258.18999,467.99932 257.61861,467.50958 256.56768,467.44835 L 255.39429,467.38714 L 255.55754,464.2139 z M 256.01671,493.79335 L 255.26164,489.0182 C 255.12901,488.19172 254.54742,487.47748 253.38423,487.66115 C 252.22105,487.84481 251.88434,488.70189 252.01699,489.54878 L 254.04745,502.31313 C 254.16988,503.16001 254.75149,503.86404 255.92485,503.68038 C 257.08804,503.48652 257.41456,502.63963 257.2819,501.80296 L 256.52686,497.03801 L 275.26018,494.07903 L 276.01522,498.8338 C 276.14786,499.68067 276.72944,500.38471 277.89263,500.20104 C 279.05581,500.01739 279.39252,499.16031 279.25988,498.31342 L 277.23962,485.54906 C 277.10699,484.71238 276.52538,484.00836 275.36221,484.192 C 274.19903,484.37567 273.86232,485.22254 273.99496,486.06943 L 274.75,490.83439 L 256.01671,493.79335 z M 264.96501,528.97445 C 264.81196,529.15809 264.52626,529.60703 264.25077,529.69887 C 263.71,529.84172 263.59778,529.09688 263.49572,528.73976 L 261.57752,522.06678 C 261.30201,521.07707 261.30201,520.50567 262.37338,520.19958 C 263.26105,519.94448 263.69979,519.20985 263.42431,518.26094 C 263.0978,517.11817 262.12848,516.85288 261.12856,517.14877 C 260.01639,517.45488 259.04708,518.4548 258.55732,519.47514 C 258.02675,520.6077 258.06755,521.69947 258.40427,522.90345 L 260.3225,529.58663 C 260.6082,530.59677 260.82245,531.32122 261.63873,532.04564 C 262.63865,532.92312 263.88347,533.21903 265.14866,532.84149 C 266.25063,532.53539 266.7812,531.97421 267.43422,531.06612 L 278.24975,516.26109 C 278.40279,516.07741 278.74971,515.50604 279.0048,515.42442 C 279.47415,515.29177 279.60679,516.10802 279.67821,516.36311 L 281.63727,523.19934 C 281.89234,524.08705 281.91274,524.61762 280.96384,524.90331 C 280.10676,525.14819 279.51497,525.92363 279.78024,526.84195 C 280.09655,527.94391 281.1475,528.2602 282.15762,527.97451 C 283.25959,527.65821 284.2187,526.69909 284.65744,525.64816 C 285.1778,524.47476 285.09619,523.37282 284.75946,522.16881 L 282.76982,515.23055 C 282.13723,513.05723 280.42307,511.60837 278.0661,512.29199 C 276.99474,512.58789 276.40294,513.2715 275.76014,514.12859 L 264.96501,528.97445 z M 276.98454,559.44158 L 273.65825,552.93186 C 273.2093,552.05438 272.73996,550.77895 273.91334,550.18716 L 275.93359,549.14642 C 277.10699,548.55463 277.81101,549.81985 278.22934,550.63611 L 281.53522,557.11523 L 276.98454,559.44158 z M 284.46358,555.62553 L 284.11667,554.96232 L 291.52429,541.02457 C 291.83038,540.46338 291.99363,539.90221 291.68755,539.32062 C 291.2794,538.50436 290.37131,538.10642 289.55505,538.53496 C 289.00405,538.81045 288.65715,539.50428 288.38165,540.04505 L 282.32088,551.42176 L 280.95364,548.72809 C 279.74964,546.39152 277.18861,544.83041 274.44392,546.22826 L 272.42365,547.2486 C 269.8218,548.57503 269.36266,551.72787 270.53603,554.04402 L 275.54587,563.85962 L 296.83002,553.01348 C 297.76873,552.53393 298.08502,551.86051 297.54426,550.80957 C 297.01369,549.75862 296.27903,549.61579 295.34033,550.08513 L 284.46358,555.62553 z M 310.15557,574.38945 L 303.89072,579.11362 L 300.99298,575.25675 C 300.48282,574.57312 299.63592,574.216 298.69723,574.94044 C 297.74832,575.63427 297.86055,576.54237 298.37072,577.2362 L 301.26847,581.08284 L 295.01382,585.79678 L 288.21839,576.78725 C 287.69804,576.10363 286.86136,575.74651 285.92266,576.47095 C 284.97375,577.18518 285.07578,578.08308 285.59616,578.76669 L 294.3608,590.4087 L 314.75727,575.03228 L 305.98242,563.40048 C 305.47224,562.71687 304.62536,562.35974 303.68667,563.07397 C 302.74795,563.78821 302.84997,564.69631 303.37036,565.36972 L 310.15557,574.38945 z M 325.35854,593.59214 L 320.76702,606.21366 L 317.32851,610.17256 C 316.63468,610.95821 316.59387,611.71326 317.49176,612.48871 C 318.37946,613.26416 319.1141,613.13151 319.80793,612.32545 L 323.20563,608.42777 C 323.48111,608.10127 323.75662,607.73395 323.89945,607.31562 L 329.64393,591.15354 C 329.93984,590.31687 330.12349,589.65366 329.35825,588.98023 C 328.59298,588.317 327.96038,588.58231 327.17472,589.00064 L 311.96157,596.94904 C 311.57383,597.13269 311.24732,597.4592 310.96162,597.78571 L 307.56392,601.69359 C 306.88029,602.48944 306.83948,603.23428 307.72717,604.01994 C 308.61485,604.78519 309.35971,604.64234 310.04334,603.83629 L 313.49206,599.8774 L 325.35854,593.59214 z M 339.62279,623.84501 L 335.44964,621.43703 C 334.70479,621.0085 333.79669,621.0085 333.20488,622.03903 C 332.61311,623.04916 333.07225,623.84501 333.80689,624.28376 L 344.99995,630.73227 C 345.73458,631.171 346.6529,631.171 347.24467,630.14047 C 347.83648,629.10993 347.37732,628.32428 346.64268,627.89574 L 342.46952,625.47755 L 351.94842,609.0604 L 356.13178,611.47857 C 356.86642,611.88671 357.77452,611.88671 358.36631,610.86638 C 358.9581,609.84605 358.49895,609.0604 357.76432,608.63184 L 346.57126,602.16294 C 345.83662,601.7344 344.91832,601.7446 344.32653,602.76494 C 343.73474,603.79547 344.19388,604.58113 344.92852,604.99947 L 349.10168,607.41766 L 339.62279,623.84501 z M 371.13068,620.81463 L 372.40609,642.4763 L 376.46704,643.95579 L 384.63989,621.50846 C 384.99701,620.51873 384.77254,619.80448 383.66037,619.40657 C 382.5482,618.99842 381.9156,619.39637 381.55849,620.38609 L 375.38547,637.34402 L 374.04883,615.89663 L 369.96751,614.42734 L 361.80485,636.87467 C 361.43752,637.8644 361.67219,638.56843 362.78434,638.96636 C 363.89651,639.37448 364.52913,638.98676 364.87604,637.98684 L 371.13068,620.81463 z M 402.06718,623.66135 C 400.44486,623.40628 399.11841,623.58992 397.78179,624.68169 C 396.52677,625.70203 396.17985,626.84479 395.94518,628.33447 L 393.07804,646.42499 C 392.91479,647.45553 393.27191,648.10853 394.44529,648.3024 C 395.60847,648.47585 396.15945,647.96569 396.3227,646.92496 L 399.17964,628.85485 C 399.46533,627.02846 400.08774,626.67133 401.54681,626.89582 L 407.0668,627.7733 C 408.51569,627.99777 408.99525,628.53854 408.70955,630.35475 L 405.84242,648.43504 C 405.67917,649.48599 406.04649,650.1492 407.20966,650.32266 C 408.37284,650.51653 408.92381,649.99615 409.08707,648.96561 L 411.95421,630.87511 C 412.1889,629.38543 412.20929,628.19164 411.33182,626.81419 C 410.3931,625.37553 409.1891,624.78372 407.57698,624.52864 L 402.06718,623.66135 z M 428.7591,328.79527 C 509.33481,328.79527 574.65654,394.117 574.65654,474.69272 C 574.65654,555.26843 509.33481,620.60036 428.7591,620.60036 C 348.18338,620.60036 282.86165,555.26843 282.86165,474.69272 C 282.86165,394.117 348.18338,328.79527 428.7591,328.79527 M 428.7591,291.58372 C 327.63387,291.58372 245.6501,373.56749 245.6501,474.69272 C 245.6501,575.81794 327.63387,657.80171 428.7591,657.80171 C 529.89452,657.80171 611.8681,575.81794 611.8681,474.69272 C 611.8681,373.56749 529.89452,291.58372 428.7591,291.58372 M 428.7591,285.46171 C 533.27183,285.46171 617.97988,370.19019 617.97988,474.69272 C 617.97988,579.20544 533.27183,663.9237 428.7591,663.9237 C 324.24638,663.9237 239.53831,579.20544 239.53831,474.69272 C 239.53831,370.19019 324.24638,285.46171 428.7591,285.46171 M 428.7591,283.2782 C 323.04238,283.2782 237.34458,368.976 237.34458,474.69272 C 237.34458,580.40944 323.04238,666.10721 428.7591,666.10721 C 534.47582,666.10721 620.17359,580.40944 620.17359,474.69272 C 620.17359,368.976 534.47582,283.2782 428.7591,283.2782 M 428.7591,281.53344 C 535.44513,281.53344 621.92857,368.00667 621.92857,474.69272 C 621.92857,581.38896 535.44513,667.86219 428.7591,667.86219 C 322.08326,667.86219 235.59982,581.38896 235.59982,474.69272 C 235.59982,368.00667 322.08326,281.53344 428.7591,281.53344"
       id="path33"
       style="fill:#231f20;fill-opacity:1;fill-rule:evenodd;stroke:none" />
  </g>
</svg>
